<svg height="600" viewBox="0 0 800 600" width="800" xmlns="http://www.w3.org/2000/svg">
<rect fill="white" height="600" width="800" x="0" y="0"/>
<text dominant-baseline="middle" fill="#000000" font-family="Times New Roman" font-size="20" text-anchor="middle" x="425" y="30">
Hypothetical Investment Growth
</text>
<text dominant-baseline="middle" fill="#000000" font-family="Times New Roman" font-size="14" text-anchor="middle" x="425" y="565">
Years
</text>
<text dominant-baseline="middle" fill="#000000" font-family="Times New Roman" font-size="14" text-anchor="middle" transform="rotate(-90, 24, 295)" x="24" y="295">
Value ($)
</text>
<rect fill="none" height="470" stroke="#000000" stroke-width="1.5" width="690" x="80" y="60"/>
<line stroke="#000000" stroke-width="1" x1="80" x2="80" y1="530" y2="525"/>
<text dominant-baseline="hanging" fill="#000000" font-family="Times New Roman" font-size="10" text-anchor="middle" x="80" y="539">
0.0
</text>
<line stroke="#000000" stroke-width="1" x1="80" x2="80" y1="60" y2="65"/>
<line stroke="#d3d3d3" stroke-dasharray="4 4" stroke-width="0.5" x1="149" x2="149" y1="60" y2="530"/>
<line stroke="#000000" stroke-width="1" x1="149" x2="149" y1="530" y2="525"/>
<text dominant-baseline="hanging" fill="#000000" font-family="Times New Roman" font-size="10" text-anchor="middle" x="149" y="539">
1.0
</text>
<line stroke="#000000" stroke-width="1" x1="149" x2="149" y1="60" y2="65"/>
<line stroke="#d3d3d3" stroke-dasharray="4 4" stroke-width="0.5" x1="218" x2="218" y1="60" y2="530"/>
<line stroke="#000000" stroke-width="1" x1="218" x2="218" y1="530" y2="525"/>
<text dominant-baseline="hanging" fill="#000000" font-family="Times New Roman" font-size="10" text-anchor="middle" x="218" y="539">
2.0
</text>
<line stroke="#000000" stroke-width="1" x1="218" x2="218" y1="60" y2="65"/>
<line stroke="#d3d3d3" stroke-dasharray="4 4" stroke-width="0.5" x1="287" x2="287" y1="60" y2="530"/>
<line stroke="#000000" stroke-width="1" x1="287" x2="287" y1="530" y2="525"/>
<text dominant-baseline="hanging" fill="#000000" font-family="Times New Roman" font-size="10" text-anchor="middle" x="287" y="539">
3.0
</text>
<line stroke="#000000" stroke-width="1" x1="287" x2="287" y1="60" y2="65"/>
<line stroke="#d3d3d3" stroke-dasharray="4 4" stroke-width="0.5" x1="356" x2="356" y1="60" y2="530"/>
<line stroke="#000000" stroke-width="1" x1="356" x2="356" y1="530" y2="525"/>
<text dominant-baseline="hanging" fill="#000000" font-family="Times New Roman" font-size="10" text-anchor="middle" x="356" y="539">
4.0
</text>
<line stroke="#000000" stroke-width="1" x1="356" x2="356" y1="60" y2="65"/>
<line stroke="#d3d3d3" stroke-dasharray="4 4" stroke-width="0.5" x1="425" x2="425" y1="60" y2="530"/>
<line stroke="#000000" stroke-width="1" x1="425" x2="425" y1="530" y2="525"/>
<text dominant-baseline="hanging" fill="#000000" font-family="Times New Roman" font-size="10" text-anchor="middle" x="425" y="539">
5.0
</text>
<line stroke="#000000" stroke-width="1" x1="425" x2="425" y1="60" y2="65"/>
<line stroke="#d3d3d3" stroke-dasharray="4 4" stroke-width="0.5" x1="494.00003" x2="494.00003" y1="60" y2="530"/>
<line stroke="#000000" stroke-width="1" x1="494.00003" x2="494.00003" y1="530" y2="525"/>
<text dominant-baseline="hanging" fill="#000000" font-family="Times New Roman" font-size="10" text-anchor="middle" x="494.00003" y="539">
6.0
</text>
<line stroke="#000000" stroke-width="1" x1="494.00003" x2="494.00003" y1="60" y2="65"/>
<line stroke="#d3d3d3" stroke-dasharray="4 4" stroke-width="0.5" x1="563" x2="563" y1="60" y2="530"/>
<line stroke="#000000" stroke-width="1" x1="563" x2="563" y1="530" y2="525"/>
<text dominant-baseline="hanging" fill="#000000" font-family="Times New Roman" font-size="10" text-anchor="middle" x="563" y="539">
7.0
</text>
<line stroke="#000000" stroke-width="1" x1="563" x2="563" y1="60" y2="65"/>
<line stroke="#d3d3d3" stroke-dasharray="4 4" stroke-width="0.5" x1="632" x2="632" y1="60" y2="530"/>
<line stroke="#000000" stroke-width="1" x1="632" x2="632" y1="530" y2="525"/>
<text dominant-baseline="hanging" fill="#000000" font-family="Times New Roman" font-size="10" text-anchor="middle" x="632" y="539">
8.0
</text>
<line stroke="#000000" stroke-width="1" x1="632" x2="632" y1="60" y2="65"/>
<line stroke="#d3d3d3" stroke-dasharray="4 4" stroke-width="0.5" x1="701" x2="701" y1="60" y2="530"/>
<line stroke="#000000" stroke-width="1" x1="701" x2="701" y1="530" y2="525"/>
<text dominant-baseline="hanging" fill="#000000" font-family="Times New Roman" font-size="10" text-anchor="middle" x="701" y="539">
9.0
</text>
<line stroke="#000000" stroke-width="1" x1="701" x2="701" y1="60" y2="65"/>
<line stroke="#000000" stroke-width="1" x1="770" x2="770" y1="530" y2="525"/>
<text dominant-baseline="hanging" fill="#000000" font-family="Times New Roman" font-size="10" text-anchor="middle" x="770" y="539">
10.0
</text>
<line stroke="#000000" stroke-width="1" x1="770" x2="770" y1="60" y2="65"/>
<line stroke="#000000" stroke-width="1" x1="80" x2="85" y1="530" y2="530"/>
<line stroke="#000000" stroke-width="1" x1="770" x2="765" y1="530" y2="530"/>
<text dominant-baseline="middle" fill="#000000" font-family="Times New Roman" font-size="10" text-anchor="end" x="72" y="530">
0.0
</text>
<line stroke="#d3d3d3" stroke-dasharray="4 4" stroke-width="0.5" x1="80" x2="770" y1="467.3333" y2="467.3333"/>
<line stroke="#000000" stroke-width="1" x1="80" x2="85" y1="467.3333" y2="467.3333"/>
<line stroke="#000000" stroke-width="1" x1="770" x2="765" y1="467.3333" y2="467.3333"/>
<text dominant-baseline="middle" fill="#000000" font-family="Times New Roman" font-size="10" text-anchor="end" x="72" y="467.3333">
2000.0
</text>
<line stroke="#d3d3d3" stroke-dasharray="4 4" stroke-width="0.5" x1="80" x2="770" y1="404.66666" y2="404.66666"/>
<line stroke="#000000" stroke-width="1" x1="80" x2="85" y1="404.66666" y2="404.66666"/>
<line stroke="#000000" stroke-width="1" x1="770" x2="765" y1="404.66666" y2="404.66666"/>
<text dominant-baseline="middle" fill="#000000" font-family="Times New Roman" font-size="10" text-anchor="end" x="72" y="404.66666">
4000.0
</text>
<line stroke="#d3d3d3" stroke-dasharray="4 4" stroke-width="0.5" x1="80" x2="770" y1="342" y2="342"/>
<line stroke="#000000" stroke-width="1" x1="80" x2="85" y1="342" y2="342"/>
<line stroke="#000000" stroke-width="1" x1="770" x2="765" y1="342" y2="342"/>
<text dominant-baseline="middle" fill="#000000" font-family="Times New Roman" font-size="10" text-anchor="end" x="72" y="342">
6000.0
</text>
<line stroke="#d3d3d3" stroke-dasharray="4 4" stroke-width="0.5" x1="80" x2="770" y1="279.3333" y2="279.3333"/>
<line stroke="#000000" stroke-width="1" x1="80" x2="85" y1="279.3333" y2="279.3333"/>
<line stroke="#000000" stroke-width="1" x1="770" x2="765" y1="279.3333" y2="279.3333"/>
<text dominant-baseline="middle" fill="#000000" font-family="Times New Roman" font-size="10" text-anchor="end" x="72" y="279.3333">
8000.0
</text>
<line stroke="#d3d3d3" stroke-dasharray="4 4" stroke-width="0.5" x1="80" x2="770" y1="216.66666" y2="216.66666"/>
<line stroke="#000000" stroke-width="1" x1="80" x2="85" y1="216.66666" y2="216.66666"/>
<line stroke="#000000" stroke-width="1" x1="770" x2="765" y1="216.66666" y2="216.66666"/>
<text dominant-baseline="middle" fill="#000000" font-family="Times New Roman" font-size="10" text-anchor="end" x="72" y="216.66666">
10000.0
</text>
<line stroke="#d3d3d3" stroke-dasharray="4 4" stroke-width="0.5" x1="80" x2="770" y1="154" y2="154"/>
<line stroke="#000000" stroke-width="1" x1="80" x2="85" y1="154" y2="154"/>
<line stroke="#000000" stroke-width="1" x1="770" x2="765" y1="154" y2="154"/>
<text dominant-baseline="middle" fill="#000000" font-family="Times New Roman" font-size="10" text-anchor="end" x="72" y="154">
12000.0
</text>
<line stroke="#d3d3d3" stroke-dasharray="4 4" stroke-width="0.5" x1="80" x2="770" y1="91.33334" y2="91.33334"/>
<line stroke="#000000" stroke-width="1" x1="80" x2="85" y1="91.33334" y2="91.33334"/>
<line stroke="#000000" stroke-width="1" x1="770" x2="765" y1="91.33334" y2="91.33334"/>
<text dominant-baseline="middle" fill="#000000" font-family="Times New Roman" font-size="10" text-anchor="end" x="72" y="91.33334">
14000.0
</text>
<defs>
<clipPath id="plotAreaClip">
<rect height="470" width="690" x="80" y="60"/>
</clipPath>
</defs>
<g clip-path="url(#plotAreaClip)">
<path d="M80,498.66666 L149,497.1 L218,495.45502 L287,493.72855 L356,491.91434 L425,490.00928 L494.00003,488.0102 L563,485.91086 L632,483.70502 L701,481.3926 L770,478.96112" fill="none" stroke="#00ff00" stroke-width="1"/>
<circle cx="80" cy="498.66666" fill="#00ff00" r="0.5"/>
<circle cx="149" cy="497.1" fill="#00ff00" r="0.5"/>
<circle cx="218" cy="495.45502" fill="#00ff00" r="0.5"/>
<circle cx="287" cy="493.72855" fill="#00ff00" r="0.5"/>
<circle cx="356" cy="491.91434" fill="#00ff00" r="0.5"/>
<circle cx="425" cy="490.00928" fill="#00ff00" r="0.5"/>
<circle cx="494.00003" cy="488.0102" fill="#00ff00" r="0.5"/>
<circle cx="563" cy="485.91086" fill="#00ff00" r="0.5"/>
<circle cx="632" cy="483.70502" fill="#00ff00" r="0.5"/>
<circle cx="701" cy="481.3926" fill="#00ff00" r="0.5"/>
<circle cx="770" cy="478.96112" fill="#00ff00" r="0.5"/>
<path d="M80,498.66666 L149,495.53333 L218,492.08667 L287,488.29535 L356,484.12488 L425,479.53766 L494.00003,474.48987 L563,468.94073 L632,462.83386 L701,456.11914 L770,448.73074" fill="none" stroke="#ff7f00" stroke-width="1"/>
<rect fill="#ff7f00" height="1" width="1" x="79.5" y="498.16666"/>
<rect fill="#ff7f00" height="1" width="1" x="148.5" y="495.03333"/>
<rect fill="#ff7f00" height="1" width="1" x="217.5" y="491.58667"/>
<rect fill="#ff7f00" height="1" width="1" x="286.5" y="487.79535"/>
<rect fill="#ff7f00" height="1" width="1" x="355.5" y="483.62488"/>
<rect fill="#ff7f00" height="1" width="1" x="424.5" y="479.03766"/>
<rect fill="#ff7f00" height="1" width="1" x="493.50003" y="473.98987"/>
<rect fill="#ff7f00" height="1" width="1" x="562.5" y="468.44073"/>
<rect fill="#ff7f00" height="1" width="1" x="631.5" y="462.33386"/>
<rect fill="#ff7f00" height="1" width="1" x="700.5" y="455.61914"/>
<rect fill="#ff7f00" height="1" width="1" x="769.5" y="448.23074"/>
<path d="M80,498.66666 L149,492.4 L218,501.8 L287,483 L356,467.3333 L425,473.6 L494.00003,451.66666 L563,420.33334 L632,373.3333 L701,389 L770,342" fill="none" stroke="#ff0000" stroke-dasharray="5 5" stroke-width="1"/>
<path d="M79.5,498.16666 L80.5,499.16666 M79.5,499.16666 L80.5,498.16666" fill="none" stroke="#ff0000" stroke-width="1"/>
<path d="M148.5,491.9 L149.5,492.9 M148.5,492.9 L149.5,491.9" fill="none" stroke="#ff0000" stroke-width="1"/>
<path d="M217.5,501.3 L218.5,502.3 M217.5,502.3 L218.5,501.3" fill="none" stroke="#ff0000" stroke-width="1"/>
<path d="M286.5,482.5 L287.5,483.5 M286.5,483.5 L287.5,482.5" fill="none" stroke="#ff0000" stroke-width="1"/>
<path d="M355.5,466.8333 L356.5,467.8333 M355.5,467.8333 L356.5,466.8333" fill="none" stroke="#ff0000" stroke-width="1"/>
<path d="M424.5,473.1 L425.5,474.1 M424.5,474.1 L425.5,473.1" fill="none" stroke="#ff0000" stroke-width="1"/>
<path d="M493.50003,451.16666 L494.50003,452.16666 M493.50003,452.16666 L494.50003,451.16666" fill="none" stroke="#ff0000" stroke-width="1"/>
<path d="M562.5,419.83334 L563.5,420.83334 M562.5,420.83334 L563.5,419.83334" fill="none" stroke="#ff0000" stroke-width="1"/>
<path d="M631.5,372.8333 L632.5,373.8333 M631.5,373.8333 L632.5,372.8333" fill="none" stroke="#ff0000" stroke-width="1"/>
<path d="M700.5,388.5 L701.5,389.5 M700.5,389.5 L701.5,388.5" fill="none" stroke="#ff0000" stroke-width="1"/>
<path d="M769.5,341.5 L770.5,342.5 M769.5,342.5 L770.5,341.5" fill="none" stroke="#ff0000" stroke-width="1"/>
</g>
<rect fill="white" height="74" stroke="#000000" stroke-width="1" width="198.40001" x="90" y="70"/>
<rect fill="#00ff00" height="14.400001" width="15" x="100" y="81.8"/>
<text dominant-baseline="middle" fill="#000000" font-family="Times New Roman" font-size="12" text-anchor="start" x="120" y="89">
Low-Risk Investment
</text>
<rect fill="#ff7f00" height="14.400001" width="15" x="100" y="99.8"/>
<text dominant-baseline="middle" fill="#000000" font-family="Times New Roman" font-size="12" text-anchor="start" x="120" y="107">
Medium-Risk Investment
</text>
<rect fill="#ff0000" height="14.400001" width="15" x="100" y="117.8"/>
<text dominant-baseline="middle" fill="#000000" font-family="Times New Roman" font-size="12" text-anchor="start" x="120" y="125">
High-Risk Investment
</text>
</svg>