<svg height="400" viewBox="0 0 600 400" width="600" xmlns="http://www.w3.org/2000/svg">
<rect fill="white" height="400" width="600" x="0" y="0"/>
<text dominant-baseline="middle" fill="#000000" font-family="Times New Roman" font-size="20" text-anchor="middle" x="264" y="30">
Line Graph Example
</text>
<text dominant-baseline="middle" fill="#000000" font-family="Times New Roman" font-size="14" text-anchor="middle" x="264" y="376">
X Axis
</text>
<text dominant-baseline="middle" fill="#000000" font-family="Times New Roman" font-size="14" text-anchor="middle" transform="rotate(-90, 18, 200)" x="18" y="200">
Y Axis
</text>
<rect fill="none" height="280" stroke="#000000" stroke-width="1.5" width="408" x="60" y="60"/>
<line stroke="#000000" stroke-width="1" x1="60" x2="60" y1="340" y2="335"/>
<text dominant-baseline="hanging" fill="#000000" font-family="Times New Roman" font-size="10" text-anchor="middle" x="60" y="349">
0
</text>
<line stroke="#000000" stroke-width="1" x1="60" x2="60" y1="60" y2="65"/>
<line stroke="#c0c0c0" stroke-width="0.5" x1="124.08849" x2="124.08849" y1="60" y2="340"/>
<line stroke="#000000" stroke-width="1" x1="124.08849" x2="124.08849" y1="340" y2="335"/>
<text dominant-baseline="hanging" fill="#000000" font-family="Times New Roman" font-size="10" text-anchor="middle" x="124.08849" y="349">
π/2
</text>
<line stroke="#000000" stroke-width="1" x1="124.08849" x2="124.08849" y1="60" y2="65"/>
<line stroke="#c0c0c0" stroke-width="0.5" x1="188.17699" x2="188.17699" y1="60" y2="340"/>
<line stroke="#000000" stroke-width="1" x1="188.17699" x2="188.17699" y1="340" y2="335"/>
<text dominant-baseline="hanging" fill="#000000" font-family="Times New Roman" font-size="10" text-anchor="middle" x="188.17699" y="349">
π
</text>
<line stroke="#000000" stroke-width="1" x1="188.17699" x2="188.17699" y1="60" y2="65"/>
<line stroke="#c0c0c0" stroke-width="0.5" x1="252.26547" x2="252.26547" y1="60" y2="340"/>
<line stroke="#000000" stroke-width="1" x1="252.26547" x2="252.26547" y1="340" y2="335"/>
<text dominant-baseline="hanging" fill="#000000" font-family="Times New Roman" font-size="10" text-anchor="middle" x="252.26547" y="349">
3π/2
</text>
<line stroke="#000000" stroke-width="1" x1="252.26547" x2="252.26547" y1="60" y2="65"/>
<line stroke="#c0c0c0" stroke-width="0.5" x1="316.35397" x2="316.35397" y1="60" y2="340"/>
<line stroke="#000000" stroke-width="1" x1="316.35397" x2="316.35397" y1="340" y2="335"/>
<text dominant-baseline="hanging" fill="#000000" font-family="Times New Roman" font-size="10" text-anchor="middle" x="316.35397" y="349">
2π
</text>
<line stroke="#000000" stroke-width="1" x1="316.35397" x2="316.35397" y1="60" y2="65"/>
<line stroke="#c0c0c0" stroke-width="0.5" x1="380.44247" x2="380.44247" y1="60" y2="340"/>
<line stroke="#000000" stroke-width="1" x1="380.44247" x2="380.44247" y1="340" y2="335"/>
<text dominant-baseline="hanging" fill="#000000" font-family="Times New Roman" font-size="10" text-anchor="middle" x="380.44247" y="349">
5π/2
</text>
<line stroke="#000000" stroke-width="1" x1="380.44247" x2="380.44247" y1="60" y2="65"/>
<line stroke="#c0c0c0" stroke-width="0.5" x1="444.53094" x2="444.53094" y1="60" y2="340"/>
<line stroke="#000000" stroke-width="1" x1="444.53094" x2="444.53094" y1="340" y2="335"/>
<text dominant-baseline="hanging" fill="#000000" font-family="Times New Roman" font-size="10" text-anchor="middle" x="444.53094" y="349">
3π
</text>
<line stroke="#000000" stroke-width="1" x1="444.53094" x2="444.53094" y1="60" y2="65"/>
<line stroke="#000000" stroke-width="1" x1="60" x2="65" y1="340.01074" y2="340.01074"/>
<line stroke="#000000" stroke-width="1" x1="468" x2="463" y1="340.01074" y2="340.01074"/>
<text dominant-baseline="middle" fill="#000000" font-family="Times New Roman" font-size="10" text-anchor="end" x="52" y="340.01074">
-1.0
</text>
<line stroke="#c0c0c0" stroke-width="0.5" x1="60" x2="468" y1="269.99313" y2="269.99313"/>
<line stroke="#000000" stroke-width="1" x1="60" x2="65" y1="269.99313" y2="269.99313"/>
<line stroke="#000000" stroke-width="1" x1="468" x2="463" y1="269.99313" y2="269.99313"/>
<text dominant-baseline="middle" fill="#000000" font-family="Times New Roman" font-size="10" text-anchor="end" x="52" y="269.99313">
-0.5
</text>
<line stroke="#c0c0c0" stroke-width="0.5" x1="60" x2="468" y1="199.97551" y2="199.97551"/>
<line stroke="#000000" stroke-width="1" x1="60" x2="65" y1="199.97551" y2="199.97551"/>
<line stroke="#000000" stroke-width="1" x1="468" x2="463" y1="199.97551" y2="199.97551"/>
<text dominant-baseline="middle" fill="#000000" font-family="Times New Roman" font-size="10" text-anchor="end" x="52" y="199.97551">
0.0
</text>
<line stroke="#c0c0c0" stroke-width="0.5" x1="60" x2="468" y1="129.95792" y2="129.95792"/>
<line stroke="#000000" stroke-width="1" x1="60" x2="65" y1="129.95792" y2="129.95792"/>
<line stroke="#000000" stroke-width="1" x1="468" x2="463" y1="129.95792" y2="129.95792"/>
<text dominant-baseline="middle" fill="#000000" font-family="Times New Roman" font-size="10" text-anchor="end" x="52" y="129.95792">
0.5
</text>
<line stroke="#000000" stroke-width="1" x1="60" x2="65" y1="59.940277" y2="59.940277"/>
<line stroke="#000000" stroke-width="1" x1="468" x2="463" y1="59.940277" y2="59.940277"/>
<text dominant-baseline="middle" fill="#000000" font-family="Times New Roman" font-size="10" text-anchor="end" x="52" y="59.940277">
1.0
</text>
<defs>
<clipPath id="plotAreaClip">
<rect height="280" width="408" x="60" y="60"/>
</clipPath>
</defs>
<g clip-path="url(#plotAreaClip)">
<path d="M60,199.97551 L64.08,185.99533 L68.16,172.15482 L72.24,158.59227 L76.32,145.44322 L80.4,132.83905 L84.48,120.905685 L88.56,109.762344 L92.64,99.5204 L96.72,90.282166 L100.8,82.13995 L104.880005,75.17511 L108.96001,69.457214 L113.03999,65.04343 L117.119995,61.977844 L121.2,60.291077 L125.28,60 L129.36,61.107513 L133.44,63.60254 L137.51999,67.460175 L141.6,72.641846 L145.68,79.095795 L149.76001,86.75752 L153.84,95.55054 L157.92001,105.38687 L162,116.168335 L166.07999,127.78717 L170.16,140.12729 L174.23999,153.06538 L178.32,166.47218 L182.4,180.21375 L186.48001,194.15276 L190.56,208.14996 L194.64,222.06548 L198.72,235.76027 L202.8,249.09753 L206.87999,261.94397 L210.96,274.17123 L215.04,285.65717 L219.12001,296.28702 L223.2,305.95453 L227.28,314.56314 L231.36,322.02682 L235.44,328.27103 L239.52,333.23334 L243.59999,336.86417 L247.68,339.12726 L251.76,340 L255.84001,339.47366 L259.91998,337.5535 L264,334.2587 L268.08002,329.6222 L272.15997,323.6903 L276.24,316.52228 L280.32,308.1898 L284.40002,298.776 L288.47998,288.3751 L292.56,277.09088 L296.64,265.0362 L300.72003,252.33142 L304.8,239.10353 L308.88,225.48468 L312.96002,211.61096 L317.04,197.62099 L321.12,183.65451 L325.19998,169.85115 L329.28,156.34875 L333.36,143.28226 L337.44,130.78224 L341.52,118.97357 L345.6,107.97424 L349.68,97.894165 L353.75998,88.834076 L357.84,80.88443 L361.92,74.124725 L366,68.62247 L370.08,64.43268 L374.16,61.597137 L378.24002,60.144287 L382.32,60.08853 L386.4,61.43051 L390.48,64.15677 L394.56,68.24008 L398.64,73.63968 L402.72,80.301575 L406.80002,88.15918 L410.88,97.13405 L414.96,107.136475 L419.04,118.0665 L423.12,129.81493 L427.19998,142.26442 L431.28,155.29051 L435.36,168.76309 L439.44,182.54752 L443.52,196.50609 L447.6,210.49933 L451.68002,224.3874 L455.75998,238.03159 L459.84,251.29552 L463.91998,264.04666 L468,276.15765" fill="none" stroke="#0000ff" stroke-width="1"/>
</g>
<rect fill="white" height="38" stroke="#000000" stroke-width="1" width="92" x="478" y="70"/>
<rect fill="#0000ff" height="14.400001" width="15" x="488" y="81.8"/>
<text dominant-baseline="middle" fill="#000000" font-family="Times New Roman" font-size="12" text-anchor="start" x="508" y="89">
Sine Curve
</text>
</svg>