<svg height="600" viewBox="0 0 800 600" width="800" xmlns="http://www.w3.org/2000/svg">
<rect fill="white" height="600" width="800" x="0" y="0"/>
<text dominant-baseline="middle" fill="#000000" font-family="Times New Roman" font-size="20" text-anchor="middle" x="415" y="30">
Logarithmic Y-Scale Example with Minor Ticks
</text>
<text dominant-baseline="middle" fill="#000000" font-family="Times New Roman" font-size="14" text-anchor="middle" x="415" y="576">
Time
</text>
<text dominant-baseline="middle" fill="#000000" font-family="Times New Roman" font-size="14" text-anchor="middle" transform="rotate(-90, 18, 300)" x="18" y="300">
Value (Log Scale)
</text>
<rect fill="none" height="480" stroke="#000000" stroke-width="1.5" width="710" x="60" y="60"/>
<line stroke="#000000" stroke-width="1" x1="60" x2="60" y1="540" y2="535"/>
<text dominant-baseline="hanging" fill="#000000" font-family="Times New Roman" font-size="10" text-anchor="middle" x="60" y="549">
0.0
</text>
<line stroke="#000000" stroke-width="1" x1="60" x2="60" y1="60" y2="65"/>
<line stroke="#c0c0c0" stroke-width="0.5" x1="131" x2="131" y1="60" y2="540"/>
<line stroke="#000000" stroke-width="1" x1="131" x2="131" y1="540" y2="535"/>
<text dominant-baseline="hanging" fill="#000000" font-family="Times New Roman" font-size="10" text-anchor="middle" x="131" y="549">
2.0
</text>
<line stroke="#000000" stroke-width="1" x1="131" x2="131" y1="60" y2="65"/>
<line stroke="#c0c0c0" stroke-width="0.5" x1="202" x2="202" y1="60" y2="540"/>
<line stroke="#000000" stroke-width="1" x1="202" x2="202" y1="540" y2="535"/>
<text dominant-baseline="hanging" fill="#000000" font-family="Times New Roman" font-size="10" text-anchor="middle" x="202" y="549">
4.0
</text>
<line stroke="#000000" stroke-width="1" x1="202" x2="202" y1="60" y2="65"/>
<line stroke="#c0c0c0" stroke-width="0.5" x1="273" x2="273" y1="60" y2="540"/>
<line stroke="#000000" stroke-width="1" x1="273" x2="273" y1="540" y2="535"/>
<text dominant-baseline="hanging" fill="#000000" font-family="Times New Roman" font-size="10" text-anchor="middle" x="273" y="549">
6.0
</text>
<line stroke="#000000" stroke-width="1" x1="273" x2="273" y1="60" y2="65"/>
<line stroke="#c0c0c0" stroke-width="0.5" x1="344" x2="344" y1="60" y2="540"/>
<line stroke="#000000" stroke-width="1" x1="344" x2="344" y1="540" y2="535"/>
<text dominant-baseline="hanging" fill="#000000" font-family="Times New Roman" font-size="10" text-anchor="middle" x="344" y="549">
8.0
</text>
<line stroke="#000000" stroke-width="1" x1="344" x2="344" y1="60" y2="65"/>
<line stroke="#c0c0c0" stroke-width="0.5" x1="415" x2="415" y1="60" y2="540"/>
<line stroke="#000000" stroke-width="1" x1="415" x2="415" y1="540" y2="535"/>
<text dominant-baseline="hanging" fill="#000000" font-family="Times New Roman" font-size="10" text-anchor="middle" x="415" y="549">
10.0
</text>
<line stroke="#000000" stroke-width="1" x1="415" x2="415" y1="60" y2="65"/>
<line stroke="#c0c0c0" stroke-width="0.5" x1="486.00003" x2="486.00003" y1="60" y2="540"/>
<line stroke="#000000" stroke-width="1" x1="486.00003" x2="486.00003" y1="540" y2="535"/>
<text dominant-baseline="hanging" fill="#000000" font-family="Times New Roman" font-size="10" text-anchor="middle" x="486.00003" y="549">
12.0
</text>
<line stroke="#000000" stroke-width="1" x1="486.00003" x2="486.00003" y1="60" y2="65"/>
<line stroke="#c0c0c0" stroke-width="0.5" x1="557" x2="557" y1="60" y2="540"/>
<line stroke="#000000" stroke-width="1" x1="557" x2="557" y1="540" y2="535"/>
<text dominant-baseline="hanging" fill="#000000" font-family="Times New Roman" font-size="10" text-anchor="middle" x="557" y="549">
14.0
</text>
<line stroke="#000000" stroke-width="1" x1="557" x2="557" y1="60" y2="65"/>
<line stroke="#c0c0c0" stroke-width="0.5" x1="628" x2="628" y1="60" y2="540"/>
<line stroke="#000000" stroke-width="1" x1="628" x2="628" y1="540" y2="535"/>
<text dominant-baseline="hanging" fill="#000000" font-family="Times New Roman" font-size="10" text-anchor="middle" x="628" y="549">
16.0
</text>
<line stroke="#000000" stroke-width="1" x1="628" x2="628" y1="60" y2="65"/>
<line stroke="#c0c0c0" stroke-width="0.5" x1="699" x2="699" y1="60" y2="540"/>
<line stroke="#000000" stroke-width="1" x1="699" x2="699" y1="540" y2="535"/>
<text dominant-baseline="hanging" fill="#000000" font-family="Times New Roman" font-size="10" text-anchor="middle" x="699" y="549">
18.0
</text>
<line stroke="#000000" stroke-width="1" x1="699" x2="699" y1="60" y2="65"/>
<line stroke="#000000" stroke-width="1" x1="770" x2="770" y1="540" y2="535"/>
<text dominant-baseline="hanging" fill="#000000" font-family="Times New Roman" font-size="10" text-anchor="middle" x="770" y="549">
20.0
</text>
<line stroke="#000000" stroke-width="1" x1="770" x2="770" y1="60" y2="65"/>
<line stroke="#000000" stroke-width="1" x1="60" x2="65" y1="540" y2="540"/>
<line stroke="#000000" stroke-width="1" x1="770" x2="765" y1="540" y2="540"/>
<text dominant-baseline="middle" fill="#000000" font-family="Times New Roman" font-size="10" text-anchor="end" x="52" y="540">
10
<tspan dx="-0.2em" dy="-0.4em">
0
</tspan>
</text>
<line stroke="#c0c0c0" stroke-width="0.5" x1="60" x2="770" y1="420" y2="420"/>
<line stroke="#000000" stroke-width="1" x1="60" x2="65" y1="420" y2="420"/>
<line stroke="#000000" stroke-width="1" x1="770" x2="765" y1="420" y2="420"/>
<text dominant-baseline="middle" fill="#000000" font-family="Times New Roman" font-size="10" text-anchor="end" x="52" y="420">
10
<tspan dx="-0.2em" dy="-0.4em">
1
</tspan>
</text>
<line stroke="#c0c0c0" stroke-width="0.5" x1="60" x2="770" y1="300" y2="300"/>
<line stroke="#000000" stroke-width="1" x1="60" x2="65" y1="300" y2="300"/>
<line stroke="#000000" stroke-width="1" x1="770" x2="765" y1="300" y2="300"/>
<text dominant-baseline="middle" fill="#000000" font-family="Times New Roman" font-size="10" text-anchor="end" x="52" y="300">
10
<tspan dx="-0.2em" dy="-0.4em">
2
</tspan>
</text>
<line stroke="#c0c0c0" stroke-width="0.5" x1="60" x2="770" y1="180" y2="180"/>
<line stroke="#000000" stroke-width="1" x1="60" x2="65" y1="180" y2="180"/>
<line stroke="#000000" stroke-width="1" x1="770" x2="765" y1="180" y2="180"/>
<text dominant-baseline="middle" fill="#000000" font-family="Times New Roman" font-size="10" text-anchor="end" x="52" y="180">
10
<tspan dx="-0.2em" dy="-0.4em">
3
</tspan>
</text>
<line stroke="#000000" stroke-width="1" x1="60" x2="65" y1="60" y2="60"/>
<line stroke="#000000" stroke-width="1" x1="770" x2="765" y1="60" y2="60"/>
<text dominant-baseline="middle" fill="#000000" font-family="Times New Roman" font-size="10" text-anchor="end" x="52" y="60">
10
<tspan dx="-0.2em" dy="-0.4em">
4
</tspan>
</text>
<line stroke="#c0c0c0" stroke-width="0.3" x1="60" x2="770" y1="503.8764" y2="503.8764"/>
<line stroke="#000000" stroke-width="0.5" x1="60" x2="63" y1="503.8764" y2="503.8764"/>
<line stroke="#000000" stroke-width="0.5" x1="770" x2="767" y1="503.8764" y2="503.8764"/>
<line stroke="#c0c0c0" stroke-width="0.3" x1="60" x2="770" y1="482.74545" y2="482.74545"/>
<line stroke="#000000" stroke-width="0.5" x1="60" x2="63" y1="482.74545" y2="482.74545"/>
<line stroke="#000000" stroke-width="0.5" x1="770" x2="767" y1="482.74545" y2="482.74545"/>
<line stroke="#c0c0c0" stroke-width="0.3" x1="60" x2="770" y1="467.7528" y2="467.7528"/>
<line stroke="#000000" stroke-width="0.5" x1="60" x2="63" y1="467.7528" y2="467.7528"/>
<line stroke="#000000" stroke-width="0.5" x1="770" x2="767" y1="467.7528" y2="467.7528"/>
<line stroke="#c0c0c0" stroke-width="0.3" x1="60" x2="770" y1="456.1236" y2="456.1236"/>
<line stroke="#000000" stroke-width="0.5" x1="60" x2="63" y1="456.1236" y2="456.1236"/>
<line stroke="#000000" stroke-width="0.5" x1="770" x2="767" y1="456.1236" y2="456.1236"/>
<line stroke="#c0c0c0" stroke-width="0.3" x1="60" x2="770" y1="446.62186" y2="446.62186"/>
<line stroke="#000000" stroke-width="0.5" x1="60" x2="63" y1="446.62186" y2="446.62186"/>
<line stroke="#000000" stroke-width="0.5" x1="770" x2="767" y1="446.62186" y2="446.62186"/>
<line stroke="#c0c0c0" stroke-width="0.3" x1="60" x2="770" y1="438.58826" y2="438.58826"/>
<line stroke="#000000" stroke-width="0.5" x1="60" x2="63" y1="438.58826" y2="438.58826"/>
<line stroke="#000000" stroke-width="0.5" x1="770" x2="767" y1="438.58826" y2="438.58826"/>
<line stroke="#c0c0c0" stroke-width="0.3" x1="60" x2="770" y1="431.6292" y2="431.6292"/>
<line stroke="#000000" stroke-width="0.5" x1="60" x2="63" y1="431.6292" y2="431.6292"/>
<line stroke="#000000" stroke-width="0.5" x1="770" x2="767" y1="431.6292" y2="431.6292"/>
<line stroke="#c0c0c0" stroke-width="0.3" x1="60" x2="770" y1="425.4909" y2="425.4909"/>
<line stroke="#000000" stroke-width="0.5" x1="60" x2="63" y1="425.4909" y2="425.4909"/>
<line stroke="#000000" stroke-width="0.5" x1="770" x2="767" y1="425.4909" y2="425.4909"/>
<line stroke="#c0c0c0" stroke-width="0.3" x1="60" x2="770" y1="383.8764" y2="383.8764"/>
<line stroke="#000000" stroke-width="0.5" x1="60" x2="63" y1="383.8764" y2="383.8764"/>
<line stroke="#000000" stroke-width="0.5" x1="770" x2="767" y1="383.8764" y2="383.8764"/>
<line stroke="#c0c0c0" stroke-width="0.3" x1="60" x2="770" y1="362.74545" y2="362.74545"/>
<line stroke="#000000" stroke-width="0.5" x1="60" x2="63" y1="362.74545" y2="362.74545"/>
<line stroke="#000000" stroke-width="0.5" x1="770" x2="767" y1="362.74545" y2="362.74545"/>
<line stroke="#c0c0c0" stroke-width="0.3" x1="60" x2="770" y1="347.7528" y2="347.7528"/>
<line stroke="#000000" stroke-width="0.5" x1="60" x2="63" y1="347.7528" y2="347.7528"/>
<line stroke="#000000" stroke-width="0.5" x1="770" x2="767" y1="347.7528" y2="347.7528"/>
<line stroke="#c0c0c0" stroke-width="0.3" x1="60" x2="770" y1="336.1236" y2="336.1236"/>
<line stroke="#000000" stroke-width="0.5" x1="60" x2="63" y1="336.1236" y2="336.1236"/>
<line stroke="#000000" stroke-width="0.5" x1="770" x2="767" y1="336.1236" y2="336.1236"/>
<line stroke="#c0c0c0" stroke-width="0.3" x1="60" x2="770" y1="326.62183" y2="326.62183"/>
<line stroke="#000000" stroke-width="0.5" x1="60" x2="63" y1="326.62183" y2="326.62183"/>
<line stroke="#000000" stroke-width="0.5" x1="770" x2="767" y1="326.62183" y2="326.62183"/>
<line stroke="#c0c0c0" stroke-width="0.3" x1="60" x2="770" y1="318.58826" y2="318.58826"/>
<line stroke="#000000" stroke-width="0.5" x1="60" x2="63" y1="318.58826" y2="318.58826"/>
<line stroke="#000000" stroke-width="0.5" x1="770" x2="767" y1="318.58826" y2="318.58826"/>
<line stroke="#c0c0c0" stroke-width="0.3" x1="60" x2="770" y1="311.6292" y2="311.6292"/>
<line stroke="#000000" stroke-width="0.5" x1="60" x2="63" y1="311.6292" y2="311.6292"/>
<line stroke="#000000" stroke-width="0.5" x1="770" x2="767" y1="311.6292" y2="311.6292"/>
<line stroke="#c0c0c0" stroke-width="0.3" x1="60" x2="770" y1="305.4909" y2="305.4909"/>
<line stroke="#000000" stroke-width="0.5" x1="60" x2="63" y1="305.4909" y2="305.4909"/>
<line stroke="#000000" stroke-width="0.5" x1="770" x2="767" y1="305.4909" y2="305.4909"/>
<line stroke="#c0c0c0" stroke-width="0.3" x1="60" x2="770" y1="263.8764" y2="263.8764"/>
<line stroke="#000000" stroke-width="0.5" x1="60" x2="63" y1="263.8764" y2="263.8764"/>
<line stroke="#000000" stroke-width="0.5" x1="770" x2="767" y1="263.8764" y2="263.8764"/>
<line stroke="#c0c0c0" stroke-width="0.3" x1="60" x2="770" y1="242.74542" y2="242.74542"/>
<line stroke="#000000" stroke-width="0.5" x1="60" x2="63" y1="242.74542" y2="242.74542"/>
<line stroke="#000000" stroke-width="0.5" x1="770" x2="767" y1="242.74542" y2="242.74542"/>
<line stroke="#c0c0c0" stroke-width="0.3" x1="60" x2="770" y1="227.75278" y2="227.75278"/>
<line stroke="#000000" stroke-width="0.5" x1="60" x2="63" y1="227.75278" y2="227.75278"/>
<line stroke="#000000" stroke-width="0.5" x1="770" x2="767" y1="227.75278" y2="227.75278"/>
<line stroke="#c0c0c0" stroke-width="0.3" x1="60" x2="770" y1="216.1236" y2="216.1236"/>
<line stroke="#000000" stroke-width="0.5" x1="60" x2="63" y1="216.1236" y2="216.1236"/>
<line stroke="#000000" stroke-width="0.5" x1="770" x2="767" y1="216.1236" y2="216.1236"/>
<line stroke="#c0c0c0" stroke-width="0.3" x1="60" x2="770" y1="206.62186" y2="206.62186"/>
<line stroke="#000000" stroke-width="0.5" x1="60" x2="63" y1="206.62186" y2="206.62186"/>
<line stroke="#000000" stroke-width="0.5" x1="770" x2="767" y1="206.62186" y2="206.62186"/>
<line stroke="#c0c0c0" stroke-width="0.3" x1="60" x2="770" y1="198.58823" y2="198.58823"/>
<line stroke="#000000" stroke-width="0.5" x1="60" x2="63" y1="198.58823" y2="198.58823"/>
<line stroke="#000000" stroke-width="0.5" x1="770" x2="767" y1="198.58823" y2="198.58823"/>
<line stroke="#c0c0c0" stroke-width="0.3" x1="60" x2="770" y1="191.62921" y2="191.62921"/>
<line stroke="#000000" stroke-width="0.5" x1="60" x2="63" y1="191.62921" y2="191.62921"/>
<line stroke="#000000" stroke-width="0.5" x1="770" x2="767" y1="191.62921" y2="191.62921"/>
<line stroke="#c0c0c0" stroke-width="0.3" x1="60" x2="770" y1="185.4909" y2="185.4909"/>
<line stroke="#000000" stroke-width="0.5" x1="60" x2="63" y1="185.4909" y2="185.4909"/>
<line stroke="#000000" stroke-width="0.5" x1="770" x2="767" y1="185.4909" y2="185.4909"/>
<line stroke="#c0c0c0" stroke-width="0.3" x1="60" x2="770" y1="143.8764" y2="143.8764"/>
<line stroke="#000000" stroke-width="0.5" x1="60" x2="63" y1="143.8764" y2="143.8764"/>
<line stroke="#000000" stroke-width="0.5" x1="770" x2="767" y1="143.8764" y2="143.8764"/>
<line stroke="#c0c0c0" stroke-width="0.3" x1="60" x2="770" y1="122.74542" y2="122.74542"/>
<line stroke="#000000" stroke-width="0.5" x1="60" x2="63" y1="122.74542" y2="122.74542"/>
<line stroke="#000000" stroke-width="0.5" x1="770" x2="767" y1="122.74542" y2="122.74542"/>
<line stroke="#c0c0c0" stroke-width="0.3" x1="60" x2="770" y1="107.75278" y2="107.75278"/>
<line stroke="#000000" stroke-width="0.5" x1="60" x2="63" y1="107.75278" y2="107.75278"/>
<line stroke="#000000" stroke-width="0.5" x1="770" x2="767" y1="107.75278" y2="107.75278"/>
<line stroke="#c0c0c0" stroke-width="0.3" x1="60" x2="770" y1="96.1236" y2="96.1236"/>
<line stroke="#000000" stroke-width="0.5" x1="60" x2="63" y1="96.1236" y2="96.1236"/>
<line stroke="#000000" stroke-width="0.5" x1="770" x2="767" y1="96.1236" y2="96.1236"/>
<line stroke="#c0c0c0" stroke-width="0.3" x1="60" x2="770" y1="86.62186" y2="86.62186"/>
<line stroke="#000000" stroke-width="0.5" x1="60" x2="63" y1="86.62186" y2="86.62186"/>
<line stroke="#000000" stroke-width="0.5" x1="770" x2="767" y1="86.62186" y2="86.62186"/>
<line stroke="#c0c0c0" stroke-width="0.3" x1="60" x2="770" y1="78.58823" y2="78.58823"/>
<line stroke="#000000" stroke-width="0.5" x1="60" x2="63" y1="78.58823" y2="78.58823"/>
<line stroke="#000000" stroke-width="0.5" x1="770" x2="767" y1="78.58823" y2="78.58823"/>
<line stroke="#c0c0c0" stroke-width="0.3" x1="60" x2="770" y1="71.62921" y2="71.62921"/>
<line stroke="#000000" stroke-width="0.5" x1="60" x2="63" y1="71.62921" y2="71.62921"/>
<line stroke="#000000" stroke-width="0.5" x1="770" x2="767" y1="71.62921" y2="71.62921"/>
<line stroke="#c0c0c0" stroke-width="0.3" x1="60" x2="770" y1="65.490906" y2="65.490906"/>
<line stroke="#000000" stroke-width="0.5" x1="60" x2="63" y1="65.490906" y2="65.490906"/>
<line stroke="#000000" stroke-width="0.5" x1="770" x2="767" y1="65.490906" y2="65.490906"/>
<defs>
<clipPath id="plotAreaClip">
<rect height="480" width="710" x="60" y="60"/>
</clipPath>
</defs>
<g clip-path="url(#plotAreaClip)">
<path d="M60,540 L95.5,528 L131,516 L166.5,504 L202,492 L237.5,480 L273,468 L308.5,456 L344,444 L379.5,432 L415,420 L450.5,408 L486.00003,396 L521.5,384 L557,372 L592.5,360 L628,348 L663.5,336 L699,324 L734.5,312 L770,300" fill="none" stroke="#ff0000" stroke-width="2"/>
<circle cx="60" cy="540" fill="#ff0000" r="2"/>
<circle cx="95.5" cy="528" fill="#ff0000" r="2"/>
<circle cx="131" cy="516" fill="#ff0000" r="2"/>
<circle cx="166.5" cy="504" fill="#ff0000" r="2"/>
<circle cx="202" cy="492" fill="#ff0000" r="2"/>
<circle cx="237.5" cy="480" fill="#ff0000" r="2"/>
<circle cx="273" cy="468" fill="#ff0000" r="2"/>
<circle cx="308.5" cy="456" fill="#ff0000" r="2"/>
<circle cx="344" cy="444" fill="#ff0000" r="2"/>
<circle cx="379.5" cy="432" fill="#ff0000" r="2"/>
<circle cx="415" cy="420" fill="#ff0000" r="2"/>
<circle cx="450.5" cy="408" fill="#ff0000" r="2"/>
<circle cx="486.00003" cy="396" fill="#ff0000" r="2"/>
<circle cx="521.5" cy="384" fill="#ff0000" r="2"/>
<circle cx="557" cy="372" fill="#ff0000" r="2"/>
<circle cx="592.5" cy="360" fill="#ff0000" r="2"/>
<circle cx="628" cy="348" fill="#ff0000" r="2"/>
<circle cx="663.5" cy="336" fill="#ff0000" r="2"/>
<circle cx="699" cy="324" fill="#ff0000" r="2"/>
<circle cx="734.5" cy="312" fill="#ff0000" r="2"/>
<circle cx="770" cy="300" fill="#ff0000" r="2"/>
<path d="M95.5,540 L131,431.6292 L166.5,368.23633 L202,323.2584 L237.5,288.3708 L273,259.86554 L308.5,235.76471 L344,214.8876 L379.5,196.47269 L415,180 L450.5,165.09863 L486.00003,151.49475 L521.5,138.98041 L557,127.39392 L592.5,116.60715 L628,106.516785 L663.5,97.03839 L699,88.1019 L734.5,79.64871 L770,71.62921" fill="none" stroke="#0000ff" stroke-dasharray="5 5" stroke-width="2"/>
<rect fill="#0000ff" height="4" width="4" x="93.5" y="538"/>
<rect fill="#0000ff" height="4" width="4" x="129" y="429.6292"/>
<rect fill="#0000ff" height="4" width="4" x="164.5" y="366.23633"/>
<rect fill="#0000ff" height="4" width="4" x="200" y="321.2584"/>
<rect fill="#0000ff" height="4" width="4" x="235.5" y="286.3708"/>
<rect fill="#0000ff" height="4" width="4" x="271" y="257.86554"/>
<rect fill="#0000ff" height="4" width="4" x="306.5" y="233.76471"/>
<rect fill="#0000ff" height="4" width="4" x="342" y="212.8876"/>
<rect fill="#0000ff" height="4" width="4" x="377.5" y="194.47269"/>
<rect fill="#0000ff" height="4" width="4" x="413" y="178"/>
<rect fill="#0000ff" height="4" width="4" x="448.5" y="163.09863"/>
<rect fill="#0000ff" height="4" width="4" x="484.00003" y="149.49475"/>
<rect fill="#0000ff" height="4" width="4" x="519.5" y="136.98041"/>
<rect fill="#0000ff" height="4" width="4" x="555" y="125.39392"/>
<rect fill="#0000ff" height="4" width="4" x="590.5" y="114.60715"/>
<rect fill="#0000ff" height="4" width="4" x="626" y="104.516785"/>
<rect fill="#0000ff" height="4" width="4" x="661.5" y="95.03839"/>
<rect fill="#0000ff" height="4" width="4" x="697" y="86.1019"/>
<rect fill="#0000ff" height="4" width="4" x="732.5" y="77.64871"/>
<rect fill="#0000ff" height="4" width="4" x="768" y="69.62921"/>
</g>
<rect fill="white" height="56" stroke="#000000" stroke-width="1" width="84.8" x="70" y="70"/>
<rect fill="#ff0000" height="14.400001" width="15" x="80" y="81.8"/>
<text dominant-baseline="middle" fill="#000000" font-family="Times New Roman" font-size="12" text-anchor="start" x="100" y="89">
10^(x/10)
</text>
<rect fill="#0000ff" height="14.400001" width="15" x="80" y="99.8"/>
<text dominant-baseline="middle" fill="#000000" font-family="Times New Roman" font-size="12" text-anchor="start" x="100" y="107">
x³
</text>
</svg>