<svg height="500" viewBox="0 0 900 500" width="900" xmlns="http://www.w3.org/2000/svg">
<rect fill="white" height="500" width="900" x="0" y="0"/>
<text dominant-baseline="middle" fill="#000000" font-family="Verdana" font-size="20" text-anchor="middle" x="490" y="30">
Monthly Sales Data - 2024
</text>
<text dominant-baseline="middle" fill="#000000" font-family="Verdana" font-size="14" text-anchor="middle" x="490" y="476">
Month
</text>
<text dominant-baseline="middle" fill="#000000" font-family="Verdana" font-size="14" text-anchor="middle" transform="rotate(-90, 33, 250)" x="33" y="250">
Units Sold
</text>
<rect fill="none" height="380" stroke="#000000" stroke-width="1.5" width="760" x="110" y="60"/>
<line stroke="#000000" stroke-width="1" x1="110" x2="110" y1="440" y2="435"/>
<text dominant-baseline="hanging" fill="#000000" font-family="Verdana" font-size="10" text-anchor="middle" x="110" y="449">
1.0
</text>
<line stroke="#000000" stroke-width="1" x1="110" x2="110" y1="60" y2="65"/>
<line stroke="#d3d3d3" stroke-width="0.5" x1="179.09091" x2="179.09091" y1="60" y2="440"/>
<line stroke="#000000" stroke-width="1" x1="179.09091" x2="179.09091" y1="440" y2="435"/>
<text dominant-baseline="hanging" fill="#000000" font-family="Verdana" font-size="10" text-anchor="middle" x="179.09091" y="449">
2.0
</text>
<line stroke="#000000" stroke-width="1" x1="179.09091" x2="179.09091" y1="60" y2="65"/>
<line stroke="#d3d3d3" stroke-width="0.5" x1="248.18182" x2="248.18182" y1="60" y2="440"/>
<line stroke="#000000" stroke-width="1" x1="248.18182" x2="248.18182" y1="440" y2="435"/>
<text dominant-baseline="hanging" fill="#000000" font-family="Verdana" font-size="10" text-anchor="middle" x="248.18182" y="449">
3.0
</text>
<line stroke="#000000" stroke-width="1" x1="248.18182" x2="248.18182" y1="60" y2="65"/>
<line stroke="#d3d3d3" stroke-width="0.5" x1="317.27274" x2="317.27274" y1="60" y2="440"/>
<line stroke="#000000" stroke-width="1" x1="317.27274" x2="317.27274" y1="440" y2="435"/>
<text dominant-baseline="hanging" fill="#000000" font-family="Verdana" font-size="10" text-anchor="middle" x="317.27274" y="449">
4.0
</text>
<line stroke="#000000" stroke-width="1" x1="317.27274" x2="317.27274" y1="60" y2="65"/>
<line stroke="#d3d3d3" stroke-width="0.5" x1="386.36365" x2="386.36365" y1="60" y2="440"/>
<line stroke="#000000" stroke-width="1" x1="386.36365" x2="386.36365" y1="440" y2="435"/>
<text dominant-baseline="hanging" fill="#000000" font-family="Verdana" font-size="10" text-anchor="middle" x="386.36365" y="449">
5.0
</text>
<line stroke="#000000" stroke-width="1" x1="386.36365" x2="386.36365" y1="60" y2="65"/>
<line stroke="#d3d3d3" stroke-width="0.5" x1="455.45456" x2="455.45456" y1="60" y2="440"/>
<line stroke="#000000" stroke-width="1" x1="455.45456" x2="455.45456" y1="440" y2="435"/>
<text dominant-baseline="hanging" fill="#000000" font-family="Verdana" font-size="10" text-anchor="middle" x="455.45456" y="449">
6.0
</text>
<line stroke="#000000" stroke-width="1" x1="455.45456" x2="455.45456" y1="60" y2="65"/>
<line stroke="#d3d3d3" stroke-width="0.5" x1="524.5455" x2="524.5455" y1="60" y2="440"/>
<line stroke="#000000" stroke-width="1" x1="524.5455" x2="524.5455" y1="440" y2="435"/>
<text dominant-baseline="hanging" fill="#000000" font-family="Verdana" font-size="10" text-anchor="middle" x="524.5455" y="449">
7.0
</text>
<line stroke="#000000" stroke-width="1" x1="524.5455" x2="524.5455" y1="60" y2="65"/>
<line stroke="#d3d3d3" stroke-width="0.5" x1="593.63635" x2="593.63635" y1="60" y2="440"/>
<line stroke="#000000" stroke-width="1" x1="593.63635" x2="593.63635" y1="440" y2="435"/>
<text dominant-baseline="hanging" fill="#000000" font-family="Verdana" font-size="10" text-anchor="middle" x="593.63635" y="449">
8.0
</text>
<line stroke="#000000" stroke-width="1" x1="593.63635" x2="593.63635" y1="60" y2="65"/>
<line stroke="#d3d3d3" stroke-width="0.5" x1="662.7273" x2="662.7273" y1="60" y2="440"/>
<line stroke="#000000" stroke-width="1" x1="662.7273" x2="662.7273" y1="440" y2="435"/>
<text dominant-baseline="hanging" fill="#000000" font-family="Verdana" font-size="10" text-anchor="middle" x="662.7273" y="449">
9.0
</text>
<line stroke="#000000" stroke-width="1" x1="662.7273" x2="662.7273" y1="60" y2="65"/>
<line stroke="#d3d3d3" stroke-width="0.5" x1="731.8182" x2="731.8182" y1="60" y2="440"/>
<line stroke="#000000" stroke-width="1" x1="731.8182" x2="731.8182" y1="440" y2="435"/>
<text dominant-baseline="hanging" fill="#000000" font-family="Verdana" font-size="10" text-anchor="middle" x="731.8182" y="449">
10.0
</text>
<line stroke="#000000" stroke-width="1" x1="731.8182" x2="731.8182" y1="60" y2="65"/>
<line stroke="#d3d3d3" stroke-width="0.5" x1="800.9091" x2="800.9091" y1="60" y2="440"/>
<line stroke="#000000" stroke-width="1" x1="800.9091" x2="800.9091" y1="440" y2="435"/>
<text dominant-baseline="hanging" fill="#000000" font-family="Verdana" font-size="10" text-anchor="middle" x="800.9091" y="449">
11.0
</text>
<line stroke="#000000" stroke-width="1" x1="800.9091" x2="800.9091" y1="60" y2="65"/>
<line stroke="#000000" stroke-width="1" x1="870" x2="870" y1="440" y2="435"/>
<text dominant-baseline="hanging" fill="#000000" font-family="Verdana" font-size="10" text-anchor="middle" x="870" y="449">
12.0
</text>
<line stroke="#000000" stroke-width="1" x1="870" x2="870" y1="60" y2="65"/>
<line stroke="#000000" stroke-width="1" x1="110" x2="115" y1="440" y2="440"/>
<line stroke="#000000" stroke-width="1" x1="870" x2="865" y1="440" y2="440"/>
<text dominant-baseline="middle" fill="#000000" font-family="Verdana" font-size="10" text-anchor="end" x="102" y="440">
0.0
</text>
<line stroke="#d3d3d3" stroke-width="0.5" x1="110" x2="870" y1="376.66666" y2="376.66666"/>
<line stroke="#000000" stroke-width="1" x1="110" x2="115" y1="376.66666" y2="376.66666"/>
<line stroke="#000000" stroke-width="1" x1="870" x2="865" y1="376.66666" y2="376.66666"/>
<text dominant-baseline="middle" fill="#000000" font-family="Verdana" font-size="10" text-anchor="end" x="102" y="376.66666">
50.0
</text>
<line stroke="#d3d3d3" stroke-width="0.5" x1="110" x2="870" y1="313.3333" y2="313.3333"/>
<line stroke="#000000" stroke-width="1" x1="110" x2="115" y1="313.3333" y2="313.3333"/>
<line stroke="#000000" stroke-width="1" x1="870" x2="865" y1="313.3333" y2="313.3333"/>
<text dominant-baseline="middle" fill="#000000" font-family="Verdana" font-size="10" text-anchor="end" x="102" y="313.3333">
100.0
</text>
<line stroke="#d3d3d3" stroke-width="0.5" x1="110" x2="870" y1="250" y2="250"/>
<line stroke="#000000" stroke-width="1" x1="110" x2="115" y1="250" y2="250"/>
<line stroke="#000000" stroke-width="1" x1="870" x2="865" y1="250" y2="250"/>
<text dominant-baseline="middle" fill="#000000" font-family="Verdana" font-size="10" text-anchor="end" x="102" y="250">
150.0
</text>
<line stroke="#d3d3d3" stroke-width="0.5" x1="110" x2="870" y1="186.66666" y2="186.66666"/>
<line stroke="#000000" stroke-width="1" x1="110" x2="115" y1="186.66666" y2="186.66666"/>
<line stroke="#000000" stroke-width="1" x1="870" x2="865" y1="186.66666" y2="186.66666"/>
<text dominant-baseline="middle" fill="#000000" font-family="Verdana" font-size="10" text-anchor="end" x="102" y="186.66666">
200.0
</text>
<line stroke="#d3d3d3" stroke-width="0.5" x1="110" x2="870" y1="123.33334" y2="123.33334"/>
<line stroke="#000000" stroke-width="1" x1="110" x2="115" y1="123.33334" y2="123.33334"/>
<line stroke="#000000" stroke-width="1" x1="870" x2="865" y1="123.33334" y2="123.33334"/>
<text dominant-baseline="middle" fill="#000000" font-family="Verdana" font-size="10" text-anchor="end" x="102" y="123.33334">
250.0
</text>
<line stroke="#000000" stroke-width="1" x1="110" x2="115" y1="60" y2="60"/>
<line stroke="#000000" stroke-width="1" x1="870" x2="865" y1="60" y2="60"/>
<text dominant-baseline="middle" fill="#000000" font-family="Verdana" font-size="10" text-anchor="end" x="102" y="60">
300.0
</text>
<defs>
<clipPath id="plotAreaClip">
<rect height="380" width="760" x="110" y="60"/>
</clipPath>
</defs>
<g clip-path="url(#plotAreaClip)">
<path d="M110,250 L179.09091,237.33333 L248.18182,224.66667 L317.27274,243.66667 L386.36365,211.99998 L455.45456,199.33334 L524.5455,186.66666 L593.63635,205.66666 L662.7273,174 L731.8182,161.33331 L800.9091,136 L870,123.33334" fill="none" stroke="#0000ff" stroke-width="1"/>
<circle cx="110" cy="250" fill="#0000ff" r="0.5"/>
<circle cx="179.09091" cy="237.33333" fill="#0000ff" r="0.5"/>
<circle cx="248.18182" cy="224.66667" fill="#0000ff" r="0.5"/>
<circle cx="317.27274" cy="243.66667" fill="#0000ff" r="0.5"/>
<circle cx="386.36365" cy="211.99998" fill="#0000ff" r="0.5"/>
<circle cx="455.45456" cy="199.33334" fill="#0000ff" r="0.5"/>
<circle cx="524.5455" cy="186.66666" fill="#0000ff" r="0.5"/>
<circle cx="593.63635" cy="205.66666" fill="#0000ff" r="0.5"/>
<circle cx="662.7273" cy="174" fill="#0000ff" r="0.5"/>
<circle cx="731.8182" cy="161.33331" fill="#0000ff" r="0.5"/>
<circle cx="800.9091" cy="136" fill="#0000ff" r="0.5"/>
<circle cx="870" cy="123.33334" fill="#0000ff" r="0.5"/>
<path d="M110,338.66666 L179.09091,332.33334 L248.18182,326 L317.27274,313.3333 L386.36365,319.6667 L455.45456,300.66666 L524.5455,307 L593.63635,288 L662.7273,275.3333 L731.8182,294.33334 L800.9091,262.6667 L870,250" fill="none" stroke="#b22222" stroke-width="1"/>
<rect fill="#b22222" height="1" width="1" x="109.5" y="338.16666"/>
<rect fill="#b22222" height="1" width="1" x="178.59091" y="331.83334"/>
<rect fill="#b22222" height="1" width="1" x="247.68182" y="325.5"/>
<rect fill="#b22222" height="1" width="1" x="316.77274" y="312.8333"/>
<rect fill="#b22222" height="1" width="1" x="385.86365" y="319.1667"/>
<rect fill="#b22222" height="1" width="1" x="454.95456" y="300.16666"/>
<rect fill="#b22222" height="1" width="1" x="524.0455" y="306.5"/>
<rect fill="#b22222" height="1" width="1" x="593.13635" y="287.5"/>
<rect fill="#b22222" height="1" width="1" x="662.2273" y="274.8333"/>
<rect fill="#b22222" height="1" width="1" x="731.3182" y="293.83334"/>
<rect fill="#b22222" height="1" width="1" x="800.4091" y="262.1667"/>
<rect fill="#b22222" height="1" width="1" x="869.5" y="249.5"/>
<path d="M317.27274,402 L386.36365,383 L455.45456,364 L524.5455,351.33334 L593.63635,332.33334 L662.7273,313.3333 L731.8182,300.66666 L800.9091,281.6667 L870,262.6667" fill="none" stroke="#8fbc8f" stroke-dasharray="5 5" stroke-width="1"/>
<path d="M316.77274,401.5 L317.77274,402.5 M316.77274,402.5 L317.77274,401.5" fill="none" stroke="#8fbc8f" stroke-width="1"/>
<path d="M385.86365,382.5 L386.86365,383.5 M385.86365,383.5 L386.86365,382.5" fill="none" stroke="#8fbc8f" stroke-width="1"/>
<path d="M454.95456,363.5 L455.95456,364.5 M454.95456,364.5 L455.95456,363.5" fill="none" stroke="#8fbc8f" stroke-width="1"/>
<path d="M524.0455,350.83334 L525.0455,351.83334 M524.0455,351.83334 L525.0455,350.83334" fill="none" stroke="#8fbc8f" stroke-width="1"/>
<path d="M593.13635,331.83334 L594.13635,332.83334 M593.13635,332.83334 L594.13635,331.83334" fill="none" stroke="#8fbc8f" stroke-width="1"/>
<path d="M662.2273,312.8333 L663.2273,313.8333 M662.2273,313.8333 L663.2273,312.8333" fill="none" stroke="#8fbc8f" stroke-width="1"/>
<path d="M731.3182,300.16666 L732.3182,301.16666 M731.3182,301.16666 L732.3182,300.16666" fill="none" stroke="#8fbc8f" stroke-width="1"/>
<path d="M800.4091,281.1667 L801.4091,282.1667 M800.4091,282.1667 L801.4091,281.1667" fill="none" stroke="#8fbc8f" stroke-width="1"/>
<path d="M869.5,262.1667 L870.5,263.1667 M869.5,263.1667 L870.5,262.1667" fill="none" stroke="#8fbc8f" stroke-width="1"/>
<path d="M455.45456,186.66666 L524.5455,199.33334 L593.63635,211.99998 L662.7273,224.66667 L731.8182,237.33333 L800.9091,250 L870,490.66666" fill="none" stroke="#ff8c00" stroke-width="1"/>
</g>
<rect fill="white" height="92" stroke="#000000" stroke-width="1" width="207.20001" x="120" y="70"/>
<rect fill="#0000ff" height="14.400001" width="15" x="130" y="81.8"/>
<text dominant-baseline="middle" fill="#000000" font-family="Verdana" font-size="12" text-anchor="start" x="150" y="89">
Product A
</text>
<rect fill="#b22222" height="14.400001" width="15" x="130" y="99.8"/>
<text dominant-baseline="middle" fill="#000000" font-family="Verdana" font-size="12" text-anchor="start" x="150" y="107">
Product B
</text>
<rect fill="#8fbc8f" height="14.400001" width="15" x="130" y="117.8"/>
<text dominant-baseline="middle" fill="#000000" font-family="Verdana" font-size="12" text-anchor="start" x="150" y="125">
Product C (New)
</text>
<rect fill="#ff8c00" height="14.400001" width="15" x="130" y="135.8"/>
<text dominant-baseline="middle" fill="#000000" font-family="Verdana" font-size="12" text-anchor="start" x="150" y="143">
Product D (Negative Trend)
</text>
</svg>