<svg height="500" viewBox="0 0 900 500" width="900" xmlns="http://www.w3.org/2000/svg">
<rect fill="white" height="500" width="900" x="0" y="0"/>
<text dominant-baseline="middle" fill="#000000" font-family="Verdana" font-size="20" text-anchor="middle" x="470" y="30">
Sales Data
</text>
<text dominant-baseline="middle" fill="#000000" font-family="Verdana" font-size="14" text-anchor="middle" x="470" y="476">
Month
</text>
<text dominant-baseline="middle" fill="#000000" font-family="Verdana" font-size="14" text-anchor="middle" transform="rotate(-90, 21, 250)" x="21" y="250">
Units Sold
</text>
<rect fill="none" height="380" stroke="#000000" stroke-width="1.5" width="800" x="70" y="60"/>
<line stroke="#000000" stroke-width="1" x1="70" x2="70" y1="440" y2="435"/>
<text dominant-baseline="hanging" fill="#000000" font-family="Verdana" font-size="10" text-anchor="middle" x="70" y="449">
1.0
</text>
<line stroke="#000000" stroke-width="1" x1="70" x2="70" y1="60" y2="65"/>
<line stroke="#d3d3d3" stroke-width="0.5" x1="106.36363" x2="106.36363" y1="60" y2="440"/>
<line stroke="#000000" stroke-width="1" x1="106.36363" x2="106.36363" y1="440" y2="435"/>
<text dominant-baseline="hanging" fill="#000000" font-family="Verdana" font-size="10" text-anchor="middle" x="106.36363" y="449">
1.5
</text>
<line stroke="#000000" stroke-width="1" x1="106.36363" x2="106.36363" y1="60" y2="65"/>
<line stroke="#d3d3d3" stroke-width="0.5" x1="142.72726" x2="142.72726" y1="60" y2="440"/>
<line stroke="#000000" stroke-width="1" x1="142.72726" x2="142.72726" y1="440" y2="435"/>
<text dominant-baseline="hanging" fill="#000000" font-family="Verdana" font-size="10" text-anchor="middle" x="142.72726" y="449">
2.0
</text>
<line stroke="#000000" stroke-width="1" x1="142.72726" x2="142.72726" y1="60" y2="65"/>
<line stroke="#d3d3d3" stroke-width="0.5" x1="179.09091" x2="179.09091" y1="60" y2="440"/>
<line stroke="#000000" stroke-width="1" x1="179.09091" x2="179.09091" y1="440" y2="435"/>
<text dominant-baseline="hanging" fill="#000000" font-family="Verdana" font-size="10" text-anchor="middle" x="179.09091" y="449">
2.5
</text>
<line stroke="#000000" stroke-width="1" x1="179.09091" x2="179.09091" y1="60" y2="65"/>
<line stroke="#d3d3d3" stroke-width="0.5" x1="215.45454" x2="215.45454" y1="60" y2="440"/>
<line stroke="#000000" stroke-width="1" x1="215.45454" x2="215.45454" y1="440" y2="435"/>
<text dominant-baseline="hanging" fill="#000000" font-family="Verdana" font-size="10" text-anchor="middle" x="215.45454" y="449">
3.0
</text>
<line stroke="#000000" stroke-width="1" x1="215.45454" x2="215.45454" y1="60" y2="65"/>
<line stroke="#d3d3d3" stroke-width="0.5" x1="251.81819" x2="251.81819" y1="60" y2="440"/>
<line stroke="#000000" stroke-width="1" x1="251.81819" x2="251.81819" y1="440" y2="435"/>
<text dominant-baseline="hanging" fill="#000000" font-family="Verdana" font-size="10" text-anchor="middle" x="251.81819" y="449">
3.5
</text>
<line stroke="#000000" stroke-width="1" x1="251.81819" x2="251.81819" y1="60" y2="65"/>
<line stroke="#d3d3d3" stroke-width="0.5" x1="288.18182" x2="288.18182" y1="60" y2="440"/>
<line stroke="#000000" stroke-width="1" x1="288.18182" x2="288.18182" y1="440" y2="435"/>
<text dominant-baseline="hanging" fill="#000000" font-family="Verdana" font-size="10" text-anchor="middle" x="288.18182" y="449">
4.0
</text>
<line stroke="#000000" stroke-width="1" x1="288.18182" x2="288.18182" y1="60" y2="65"/>
<line stroke="#d3d3d3" stroke-width="0.5" x1="324.54547" x2="324.54547" y1="60" y2="440"/>
<line stroke="#000000" stroke-width="1" x1="324.54547" x2="324.54547" y1="440" y2="435"/>
<text dominant-baseline="hanging" fill="#000000" font-family="Verdana" font-size="10" text-anchor="middle" x="324.54547" y="449">
4.5
</text>
<line stroke="#000000" stroke-width="1" x1="324.54547" x2="324.54547" y1="60" y2="65"/>
<line stroke="#d3d3d3" stroke-width="0.5" x1="360.9091" x2="360.9091" y1="60" y2="440"/>
<line stroke="#000000" stroke-width="1" x1="360.9091" x2="360.9091" y1="440" y2="435"/>
<text dominant-baseline="hanging" fill="#000000" font-family="Verdana" font-size="10" text-anchor="middle" x="360.9091" y="449">
5.0
</text>
<line stroke="#000000" stroke-width="1" x1="360.9091" x2="360.9091" y1="60" y2="65"/>
<line stroke="#d3d3d3" stroke-width="0.5" x1="397.27274" x2="397.27274" y1="60" y2="440"/>
<line stroke="#000000" stroke-width="1" x1="397.27274" x2="397.27274" y1="440" y2="435"/>
<text dominant-baseline="hanging" fill="#000000" font-family="Verdana" font-size="10" text-anchor="middle" x="397.27274" y="449">
5.5
</text>
<line stroke="#000000" stroke-width="1" x1="397.27274" x2="397.27274" y1="60" y2="65"/>
<line stroke="#d3d3d3" stroke-width="0.5" x1="433.63638" x2="433.63638" y1="60" y2="440"/>
<line stroke="#000000" stroke-width="1" x1="433.63638" x2="433.63638" y1="440" y2="435"/>
<text dominant-baseline="hanging" fill="#000000" font-family="Verdana" font-size="10" text-anchor="middle" x="433.63638" y="449">
6.0
</text>
<line stroke="#000000" stroke-width="1" x1="433.63638" x2="433.63638" y1="60" y2="65"/>
<line stroke="#d3d3d3" stroke-width="0.5" x1="470" x2="470" y1="60" y2="440"/>
<line stroke="#000000" stroke-width="1" x1="470" x2="470" y1="440" y2="435"/>
<text dominant-baseline="hanging" fill="#000000" font-family="Verdana" font-size="10" text-anchor="middle" x="470" y="449">
6.5
</text>
<line stroke="#000000" stroke-width="1" x1="470" x2="470" y1="60" y2="65"/>
<line stroke="#d3d3d3" stroke-width="0.5" x1="506.36365" x2="506.36365" y1="60" y2="440"/>
<line stroke="#000000" stroke-width="1" x1="506.36365" x2="506.36365" y1="440" y2="435"/>
<text dominant-baseline="hanging" fill="#000000" font-family="Verdana" font-size="10" text-anchor="middle" x="506.36365" y="449">
7.0
</text>
<line stroke="#000000" stroke-width="1" x1="506.36365" x2="506.36365" y1="60" y2="65"/>
<line stroke="#d3d3d3" stroke-width="0.5" x1="542.7273" x2="542.7273" y1="60" y2="440"/>
<line stroke="#000000" stroke-width="1" x1="542.7273" x2="542.7273" y1="440" y2="435"/>
<text dominant-baseline="hanging" fill="#000000" font-family="Verdana" font-size="10" text-anchor="middle" x="542.7273" y="449">
7.5
</text>
<line stroke="#000000" stroke-width="1" x1="542.7273" x2="542.7273" y1="60" y2="65"/>
<line stroke="#d3d3d3" stroke-width="0.5" x1="579.09094" x2="579.09094" y1="60" y2="440"/>
<line stroke="#000000" stroke-width="1" x1="579.09094" x2="579.09094" y1="440" y2="435"/>
<text dominant-baseline="hanging" fill="#000000" font-family="Verdana" font-size="10" text-anchor="middle" x="579.09094" y="449">
8.0
</text>
<line stroke="#000000" stroke-width="1" x1="579.09094" x2="579.09094" y1="60" y2="65"/>
<line stroke="#d3d3d3" stroke-width="0.5" x1="615.4545" x2="615.4545" y1="60" y2="440"/>
<line stroke="#000000" stroke-width="1" x1="615.4545" x2="615.4545" y1="440" y2="435"/>
<text dominant-baseline="hanging" fill="#000000" font-family="Verdana" font-size="10" text-anchor="middle" x="615.4545" y="449">
8.5
</text>
<line stroke="#000000" stroke-width="1" x1="615.4545" x2="615.4545" y1="60" y2="65"/>
<line stroke="#d3d3d3" stroke-width="0.5" x1="651.8182" x2="651.8182" y1="60" y2="440"/>
<line stroke="#000000" stroke-width="1" x1="651.8182" x2="651.8182" y1="440" y2="435"/>
<text dominant-baseline="hanging" fill="#000000" font-family="Verdana" font-size="10" text-anchor="middle" x="651.8182" y="449">
9.0
</text>
<line stroke="#000000" stroke-width="1" x1="651.8182" x2="651.8182" y1="60" y2="65"/>
<line stroke="#d3d3d3" stroke-width="0.5" x1="688.1818" x2="688.1818" y1="60" y2="440"/>
<line stroke="#000000" stroke-width="1" x1="688.1818" x2="688.1818" y1="440" y2="435"/>
<text dominant-baseline="hanging" fill="#000000" font-family="Verdana" font-size="10" text-anchor="middle" x="688.1818" y="449">
9.5
</text>
<line stroke="#000000" stroke-width="1" x1="688.1818" x2="688.1818" y1="60" y2="65"/>
<line stroke="#d3d3d3" stroke-width="0.5" x1="724.5455" x2="724.5455" y1="60" y2="440"/>
<line stroke="#000000" stroke-width="1" x1="724.5455" x2="724.5455" y1="440" y2="435"/>
<text dominant-baseline="hanging" fill="#000000" font-family="Verdana" font-size="10" text-anchor="middle" x="724.5455" y="449">
10.0
</text>
<line stroke="#000000" stroke-width="1" x1="724.5455" x2="724.5455" y1="60" y2="65"/>
<line stroke="#d3d3d3" stroke-width="0.5" x1="760.9091" x2="760.9091" y1="60" y2="440"/>
<line stroke="#000000" stroke-width="1" x1="760.9091" x2="760.9091" y1="440" y2="435"/>
<text dominant-baseline="hanging" fill="#000000" font-family="Verdana" font-size="10" text-anchor="middle" x="760.9091" y="449">
10.5
</text>
<line stroke="#000000" stroke-width="1" x1="760.9091" x2="760.9091" y1="60" y2="65"/>
<line stroke="#d3d3d3" stroke-width="0.5" x1="797.27277" x2="797.27277" y1="60" y2="440"/>
<line stroke="#000000" stroke-width="1" x1="797.27277" x2="797.27277" y1="440" y2="435"/>
<text dominant-baseline="hanging" fill="#000000" font-family="Verdana" font-size="10" text-anchor="middle" x="797.27277" y="449">
11.0
</text>
<line stroke="#000000" stroke-width="1" x1="797.27277" x2="797.27277" y1="60" y2="65"/>
<line stroke="#d3d3d3" stroke-width="0.5" x1="833.63635" x2="833.63635" y1="60" y2="440"/>
<line stroke="#000000" stroke-width="1" x1="833.63635" x2="833.63635" y1="440" y2="435"/>
<text dominant-baseline="hanging" fill="#000000" font-family="Verdana" font-size="10" text-anchor="middle" x="833.63635" y="449">
11.5
</text>
<line stroke="#000000" stroke-width="1" x1="833.63635" x2="833.63635" y1="60" y2="65"/>
<line stroke="#000000" stroke-width="1" x1="870" x2="870" y1="440" y2="435"/>
<text dominant-baseline="hanging" fill="#000000" font-family="Verdana" font-size="10" text-anchor="middle" x="870" y="449">
12.0
</text>
<line stroke="#000000" stroke-width="1" x1="870" x2="870" y1="60" y2="65"/>
<line stroke="#000000" stroke-width="1" x1="70" x2="75" y1="440" y2="440"/>
<line stroke="#000000" stroke-width="1" x1="870" x2="865" y1="440" y2="440"/>
<text dominant-baseline="middle" fill="#000000" font-family="Verdana" font-size="10" text-anchor="end" x="62" y="440">
0.0
</text>
<line stroke="#d3d3d3" stroke-width="0.5" x1="70" x2="870" y1="376.66666" y2="376.66666"/>
<line stroke="#000000" stroke-width="1" x1="70" x2="75" y1="376.66666" y2="376.66666"/>
<line stroke="#000000" stroke-width="1" x1="870" x2="865" y1="376.66666" y2="376.66666"/>
<text dominant-baseline="middle" fill="#000000" font-family="Verdana" font-size="10" text-anchor="end" x="62" y="376.66666">
50.0
</text>
<line stroke="#d3d3d3" stroke-width="0.5" x1="70" x2="870" y1="313.3333" y2="313.3333"/>
<line stroke="#000000" stroke-width="1" x1="70" x2="75" y1="313.3333" y2="313.3333"/>
<line stroke="#000000" stroke-width="1" x1="870" x2="865" y1="313.3333" y2="313.3333"/>
<text dominant-baseline="middle" fill="#000000" font-family="Verdana" font-size="10" text-anchor="end" x="62" y="313.3333">
100.0
</text>
<line stroke="#d3d3d3" stroke-width="0.5" x1="70" x2="870" y1="250" y2="250"/>
<line stroke="#000000" stroke-width="1" x1="70" x2="75" y1="250" y2="250"/>
<line stroke="#000000" stroke-width="1" x1="870" x2="865" y1="250" y2="250"/>
<text dominant-baseline="middle" fill="#000000" font-family="Verdana" font-size="10" text-anchor="end" x="62" y="250">
150.0
</text>
<line stroke="#d3d3d3" stroke-width="0.5" x1="70" x2="870" y1="186.66666" y2="186.66666"/>
<line stroke="#000000" stroke-width="1" x1="70" x2="75" y1="186.66666" y2="186.66666"/>
<line stroke="#000000" stroke-width="1" x1="870" x2="865" y1="186.66666" y2="186.66666"/>
<text dominant-baseline="middle" fill="#000000" font-family="Verdana" font-size="10" text-anchor="end" x="62" y="186.66666">
200.0
</text>
<line stroke="#d3d3d3" stroke-width="0.5" x1="70" x2="870" y1="123.33334" y2="123.33334"/>
<line stroke="#000000" stroke-width="1" x1="70" x2="75" y1="123.33334" y2="123.33334"/>
<line stroke="#000000" stroke-width="1" x1="870" x2="865" y1="123.33334" y2="123.33334"/>
<text dominant-baseline="middle" fill="#000000" font-family="Verdana" font-size="10" text-anchor="end" x="62" y="123.33334">
250.0
</text>
<line stroke="#000000" stroke-width="1" x1="70" x2="75" y1="60" y2="60"/>
<line stroke="#000000" stroke-width="1" x1="870" x2="865" y1="60" y2="60"/>
<text dominant-baseline="middle" fill="#000000" font-family="Verdana" font-size="10" text-anchor="end" x="62" y="60">
300.0
</text>
<defs>
<clipPath id="plotAreaClip">
<rect height="380" width="800" x="70" y="60"/>
</clipPath>
</defs>
<g clip-path="url(#plotAreaClip)">
<path d="M70,250 L142.72726,237.33333 L215.45454,224.66667 L288.18182,243.66667 L360.9091,211.99998 L433.63638,199.33334 L506.36365,186.66666 L579.09094,205.66666 L651.8182,174 L724.5455,161.33331 L797.27277,136 L870,123.33334" fill="none" stroke="#0000ff" stroke-width="1"/>
<circle cx="70" cy="250" fill="#0000ff" r="0.5"/>
<circle cx="142.72726" cy="237.33333" fill="#0000ff" r="0.5"/>
<circle cx="215.45454" cy="224.66667" fill="#0000ff" r="0.5"/>
<circle cx="288.18182" cy="243.66667" fill="#0000ff" r="0.5"/>
<circle cx="360.9091" cy="211.99998" fill="#0000ff" r="0.5"/>
<circle cx="433.63638" cy="199.33334" fill="#0000ff" r="0.5"/>
<circle cx="506.36365" cy="186.66666" fill="#0000ff" r="0.5"/>
<circle cx="579.09094" cy="205.66666" fill="#0000ff" r="0.5"/>
<circle cx="651.8182" cy="174" fill="#0000ff" r="0.5"/>
<circle cx="724.5455" cy="161.33331" fill="#0000ff" r="0.5"/>
<circle cx="797.27277" cy="136" fill="#0000ff" r="0.5"/>
<circle cx="870" cy="123.33334" fill="#0000ff" r="0.5"/>
<path d="M70,338.66666 L142.72726,332.33334 L215.45454,326 L288.18182,313.3333 L360.9091,319.6667 L433.63638,300.66666 L506.36365,307 L579.09094,288 L651.8182,275.3333 L724.5455,294.33334 L797.27277,262.6667 L870,250" fill="none" stroke="#b22222" stroke-width="1"/>
<rect fill="#b22222" height="1" width="1" x="69.5" y="338.16666"/>
<rect fill="#b22222" height="1" width="1" x="142.22726" y="331.83334"/>
<rect fill="#b22222" height="1" width="1" x="214.95454" y="325.5"/>
<rect fill="#b22222" height="1" width="1" x="287.68182" y="312.8333"/>
<rect fill="#b22222" height="1" width="1" x="360.4091" y="319.1667"/>
<rect fill="#b22222" height="1" width="1" x="433.13638" y="300.16666"/>
<rect fill="#b22222" height="1" width="1" x="505.86365" y="306.5"/>
<rect fill="#b22222" height="1" width="1" x="578.59094" y="287.5"/>
<rect fill="#b22222" height="1" width="1" x="651.3182" y="274.8333"/>
<rect fill="#b22222" height="1" width="1" x="724.0455" y="293.83334"/>
<rect fill="#b22222" height="1" width="1" x="796.77277" y="262.1667"/>
<rect fill="#b22222" height="1" width="1" x="869.5" y="249.5"/>
<path d="M288.18182,402 L360.9091,383 L433.63638,364 L506.36365,351.33334 L579.09094,332.33334 L651.8182,313.3333 L724.5455,300.66666 L797.27277,281.6667 L870,262.6667" fill="none" stroke="#8fbc8f" stroke-dasharray="5 5" stroke-width="1"/>
<path d="M287.68182,401.5 L288.68182,402.5 M287.68182,402.5 L288.68182,401.5" fill="none" stroke="#8fbc8f" stroke-width="1"/>
<path d="M360.4091,382.5 L361.4091,383.5 M360.4091,383.5 L361.4091,382.5" fill="none" stroke="#8fbc8f" stroke-width="1"/>
<path d="M433.13638,363.5 L434.13638,364.5 M433.13638,364.5 L434.13638,363.5" fill="none" stroke="#8fbc8f" stroke-width="1"/>
<path d="M505.86365,350.83334 L506.86365,351.83334 M505.86365,351.83334 L506.86365,350.83334" fill="none" stroke="#8fbc8f" stroke-width="1"/>
<path d="M578.59094,331.83334 L579.59094,332.83334 M578.59094,332.83334 L579.59094,331.83334" fill="none" stroke="#8fbc8f" stroke-width="1"/>
<path d="M651.3182,312.8333 L652.3182,313.8333 M651.3182,313.8333 L652.3182,312.8333" fill="none" stroke="#8fbc8f" stroke-width="1"/>
<path d="M724.0455,300.16666 L725.0455,301.16666 M724.0455,301.16666 L725.0455,300.16666" fill="none" stroke="#8fbc8f" stroke-width="1"/>
<path d="M796.77277,281.1667 L797.77277,282.1667 M796.77277,282.1667 L797.77277,281.1667" fill="none" stroke="#8fbc8f" stroke-width="1"/>
<path d="M869.5,262.1667 L870.5,263.1667 M869.5,263.1667 L870.5,262.1667" fill="none" stroke="#8fbc8f" stroke-width="1"/>
<path d="M433.63638,186.66666 L506.36365,199.33334 L579.09094,211.99998 L651.8182,224.66667 L724.5455,237.33333 L797.27277,250 L870,490.66666" fill="none" stroke="#ff8c00" stroke-width="1"/>
</g>
<rect fill="white" height="92" stroke="#000000" stroke-width="1" width="207.20001" x="80" y="70"/>
<rect fill="#0000ff" height="14.400001" width="15" x="90" y="81.8"/>
<text dominant-baseline="middle" fill="#000000" font-family="Verdana" font-size="12" text-anchor="start" x="110" y="89">
Product A
</text>
<rect fill="#b22222" height="14.400001" width="15" x="90" y="99.8"/>
<text dominant-baseline="middle" fill="#000000" font-family="Verdana" font-size="12" text-anchor="start" x="110" y="107">
Product B
</text>
<rect fill="#8fbc8f" height="14.400001" width="15" x="90" y="117.8"/>
<text dominant-baseline="middle" fill="#000000" font-family="Verdana" font-size="12" text-anchor="start" x="110" y="125">
Product C (New)
</text>
<rect fill="#ff8c00" height="14.400001" width="15" x="90" y="135.8"/>
<text dominant-baseline="middle" fill="#000000" font-family="Verdana" font-size="12" text-anchor="start" x="110" y="143">
Product D (Negative Trend)
</text>
</svg>