<svg height="400" viewBox="0 0 600 400" width="600" xmlns="http://www.w3.org/2000/svg">
<rect fill="white" height="400" width="600" x="0" y="0"/>
<text dominant-baseline="middle" fill="#000000" font-family="Times New Roman" font-size="20" text-anchor="middle" x="246" y="30">
Scatter Graph Example
</text>
<text dominant-baseline="middle" fill="#000000" font-family="Times New Roman" font-size="14" text-anchor="middle" x="246" y="376">
X Axis
</text>
<text dominant-baseline="middle" fill="#000000" font-family="Times New Roman" font-size="14" text-anchor="middle" transform="rotate(-90, 18, 200)" x="18" y="200">
Y Axis
</text>
<rect fill="none" height="280" stroke="#000000" stroke-width="1.5" width="372" x="60" y="60"/>
<line stroke="#000000" stroke-width="1" x1="59.99819" x2="59.99819" y1="340" y2="335"/>
<text dominant-baseline="hanging" fill="#000000" font-family="Times New Roman" font-size="10" text-anchor="middle" x="59.99819" y="349">
-10.0
</text>
<line stroke="#000000" stroke-width="1" x1="59.99819" x2="59.99819" y1="60" y2="65"/>
<line stroke="#c0c0c0" stroke-dasharray="4 4" stroke-width="0.5" x1="97.2063" x2="97.2063" y1="60" y2="340"/>
<line stroke="#000000" stroke-width="1" x1="97.2063" x2="97.2063" y1="340" y2="335"/>
<text dominant-baseline="hanging" fill="#000000" font-family="Times New Roman" font-size="10" text-anchor="middle" x="97.2063" y="349">
-8.0
</text>
<line stroke="#000000" stroke-width="1" x1="97.2063" x2="97.2063" y1="60" y2="65"/>
<line stroke="#c0c0c0" stroke-dasharray="4 4" stroke-width="0.5" x1="134.41441" x2="134.41441" y1="60" y2="340"/>
<line stroke="#000000" stroke-width="1" x1="134.41441" x2="134.41441" y1="340" y2="335"/>
<text dominant-baseline="hanging" fill="#000000" font-family="Times New Roman" font-size="10" text-anchor="middle" x="134.41441" y="349">
-6.0
</text>
<line stroke="#000000" stroke-width="1" x1="134.41441" x2="134.41441" y1="60" y2="65"/>
<line stroke="#c0c0c0" stroke-dasharray="4 4" stroke-width="0.5" x1="171.62253" x2="171.62253" y1="60" y2="340"/>
<line stroke="#000000" stroke-width="1" x1="171.62253" x2="171.62253" y1="340" y2="335"/>
<text dominant-baseline="hanging" fill="#000000" font-family="Times New Roman" font-size="10" text-anchor="middle" x="171.62253" y="349">
-4.0
</text>
<line stroke="#000000" stroke-width="1" x1="171.62253" x2="171.62253" y1="60" y2="65"/>
<line stroke="#c0c0c0" stroke-dasharray="4 4" stroke-width="0.5" x1="208.83063" x2="208.83063" y1="60" y2="340"/>
<line stroke="#000000" stroke-width="1" x1="208.83063" x2="208.83063" y1="340" y2="335"/>
<text dominant-baseline="hanging" fill="#000000" font-family="Times New Roman" font-size="10" text-anchor="middle" x="208.83063" y="349">
-2.0
</text>
<line stroke="#000000" stroke-width="1" x1="208.83063" x2="208.83063" y1="60" y2="65"/>
<line stroke="#c0c0c0" stroke-dasharray="4 4" stroke-width="0.5" x1="246.03876" x2="246.03876" y1="60" y2="340"/>
<line stroke="#000000" stroke-width="1" x1="246.03876" x2="246.03876" y1="340" y2="335"/>
<text dominant-baseline="hanging" fill="#000000" font-family="Times New Roman" font-size="10" text-anchor="middle" x="246.03876" y="349">
0.0
</text>
<line stroke="#000000" stroke-width="1" x1="246.03876" x2="246.03876" y1="60" y2="65"/>
<line stroke="#c0c0c0" stroke-dasharray="4 4" stroke-width="0.5" x1="283.24686" x2="283.24686" y1="60" y2="340"/>
<line stroke="#000000" stroke-width="1" x1="283.24686" x2="283.24686" y1="340" y2="335"/>
<text dominant-baseline="hanging" fill="#000000" font-family="Times New Roman" font-size="10" text-anchor="middle" x="283.24686" y="349">
2.0
</text>
<line stroke="#000000" stroke-width="1" x1="283.24686" x2="283.24686" y1="60" y2="65"/>
<line stroke="#c0c0c0" stroke-dasharray="4 4" stroke-width="0.5" x1="320.45496" x2="320.45496" y1="60" y2="340"/>
<line stroke="#000000" stroke-width="1" x1="320.45496" x2="320.45496" y1="340" y2="335"/>
<text dominant-baseline="hanging" fill="#000000" font-family="Times New Roman" font-size="10" text-anchor="middle" x="320.45496" y="349">
4.0
</text>
<line stroke="#000000" stroke-width="1" x1="320.45496" x2="320.45496" y1="60" y2="65"/>
<line stroke="#c0c0c0" stroke-dasharray="4 4" stroke-width="0.5" x1="357.6631" x2="357.6631" y1="60" y2="340"/>
<line stroke="#000000" stroke-width="1" x1="357.6631" x2="357.6631" y1="340" y2="335"/>
<text dominant-baseline="hanging" fill="#000000" font-family="Times New Roman" font-size="10" text-anchor="middle" x="357.6631" y="349">
6.0
</text>
<line stroke="#000000" stroke-width="1" x1="357.6631" x2="357.6631" y1="60" y2="65"/>
<line stroke="#c0c0c0" stroke-dasharray="4 4" stroke-width="0.5" x1="394.8712" x2="394.8712" y1="60" y2="340"/>
<line stroke="#000000" stroke-width="1" x1="394.8712" x2="394.8712" y1="340" y2="335"/>
<text dominant-baseline="hanging" fill="#000000" font-family="Times New Roman" font-size="10" text-anchor="middle" x="394.8712" y="349">
8.0
</text>
<line stroke="#000000" stroke-width="1" x1="394.8712" x2="394.8712" y1="60" y2="65"/>
<line stroke="#000000" stroke-width="1" x1="432.07928" x2="432.07928" y1="340" y2="335"/>
<text dominant-baseline="hanging" fill="#000000" font-family="Times New Roman" font-size="10" text-anchor="middle" x="432.07928" y="349">
10.0
</text>
<line stroke="#000000" stroke-width="1" x1="432.07928" x2="432.07928" y1="60" y2="65"/>
<line stroke="#c0c0c0" stroke-dasharray="4 4" stroke-width="0.5" x1="60" x2="432" y1="270.16046" y2="270.16046"/>
<line stroke="#000000" stroke-width="1" x1="60" x2="65" y1="270.16046" y2="270.16046"/>
<line stroke="#000000" stroke-width="1" x1="432" x2="427" y1="270.16046" y2="270.16046"/>
<text dominant-baseline="middle" fill="#000000" font-family="Times New Roman" font-size="10" text-anchor="end" x="52" y="270.16046">
-5.0
</text>
<line stroke="#c0c0c0" stroke-dasharray="4 4" stroke-width="0.5" x1="60" x2="432" y1="200.08194" y2="200.08194"/>
<line stroke="#000000" stroke-width="1" x1="60" x2="65" y1="200.08194" y2="200.08194"/>
<line stroke="#000000" stroke-width="1" x1="432" x2="427" y1="200.08194" y2="200.08194"/>
<text dominant-baseline="middle" fill="#000000" font-family="Times New Roman" font-size="10" text-anchor="end" x="52" y="200.08194">
0.0
</text>
<line stroke="#c0c0c0" stroke-dasharray="4 4" stroke-width="0.5" x1="60" x2="432" y1="130.0034" y2="130.0034"/>
<line stroke="#000000" stroke-width="1" x1="60" x2="65" y1="130.0034" y2="130.0034"/>
<line stroke="#000000" stroke-width="1" x1="432" x2="427" y1="130.0034" y2="130.0034"/>
<text dominant-baseline="middle" fill="#000000" font-family="Times New Roman" font-size="10" text-anchor="end" x="52" y="130.0034">
5.0
</text>
<line stroke="#000000" stroke-width="1" x1="60" x2="65" y1="59.924866" y2="59.924866"/>
<line stroke="#000000" stroke-width="1" x1="432" x2="427" y1="59.924866" y2="59.924866"/>
<text dominant-baseline="middle" fill="#000000" font-family="Times New Roman" font-size="10" text-anchor="end" x="52" y="59.924866">
10.0
</text>
<defs>
<clipPath id="plotAreaClip">
<rect height="280" width="372" x="60" y="60"/>
</clipPath>
</defs>
<g clip-path="url(#plotAreaClip)">
<circle cx="246.03876" cy="77.08252" fill="#ff0000" r="2.5"/>
<circle cx="282.9993" cy="102.43356" fill="#ff0000" r="2.5"/>
<circle cx="318.48636" cy="136.50725" fill="#ff0000" r="2.5"/>
<circle cx="351.08514" cy="176.25986" fill="#ff0000" r="2.5"/>
<circle cx="379.4961" cy="218.14041" fill="#ff0000" r="2.5"/>
<circle cx="402.58646" cy="258.40787" fill="#ff0000" r="2.5"/>
<circle cx="419.43582" cy="293.46524" fill="#ff0000" r="2.5"/>
<circle cx="429.37238" cy="320.18094" fill="#ff0000" r="2.5"/>
<circle cx="432" cy="336.16858" fill="#ff0000" r="2.5"/>
<circle cx="427.2139" cy="340" fill="#ff0000" r="2.5"/>
<circle cx="415.20493" cy="331.33295" fill="#ff0000" r="2.5"/>
<circle cx="396.45184" cy="310.94162" fill="#ff0000" r="2.5"/>
<circle cx="371.70227" cy="280.64752" fill="#ff0000" r="2.5"/>
<circle cx="341.94287" cy="243.1568" fill="#ff0000" r="2.5"/>
<circle cx="308.36014" cy="201.81833" fill="#ff0000" r="2.5"/>
<circle cx="272.2928" cy="160.32468" fill="#ff0000" r="2.5"/>
<circle cx="235.17879" cy="122.38243" fill="#ff0000" r="2.5"/>
<circle cx="198.49771" cy="91.38086" fill="#ff0000" r="2.5"/>
<circle cx="163.71198" cy="70.089264" fill="#ff0000" r="2.5"/>
<circle cx="132.20837" cy="60.409515" fill="#ff0000" r="2.5"/>
<circle cx="105.24278" cy="63.206238" fill="#ff0000" r="2.5"/>
<circle cx="83.890274" cy="78.22974" fill="#ff0000" r="2.5"/>
<circle cx="69.00217" cy="104.137924" fill="#ff0000" r="2.5"/>
<circle cx="61.171925" cy="138.61638" fill="#ff0000" r="2.5"/>
<circle cx="60.711727" cy="178.58554" fill="#ff0000" r="2.5"/>
<circle cx="67.63994" cy="220.4748" fill="#ff0000" r="2.5"/>
<circle cx="81.680374" cy="260.54248" fill="#ff0000" r="2.5"/>
<circle cx="102.273224" cy="295.20938" fill="#ff0000" r="2.5"/>
<circle cx="128.59753" cy="321.37878" fill="#ff0000" r="2.5"/>
<circle cx="159.60393" cy="336.7132" fill="#ff0000" r="2.5"/>
<circle cx="194.05614" cy="339.84265" fill="#ff0000" r="2.5"/>
<circle cx="230.5808" cy="330.48773" fill="#ff0000" r="2.5"/>
<circle cx="267.72165" cy="309.48404" fill="#ff0000" r="2.5"/>
<circle cx="303.99805" cy="278.7079" fill="#ff0000" r="2.5"/>
<circle cx="337.9639" cy="240.90808" fill="#ff0000" r="2.5"/>
<circle cx="368.26492" cy="199.46164" fill="#ff0000" r="2.5"/>
<circle cx="393.69318" cy="158.07047" fill="#ff0000" r="2.5"/>
<circle cx="413.23492" cy="120.4321" fill="#ff0000" r="2.5"/>
<circle cx="426.11108" cy="89.908676" fill="#ff0000" r="2.5"/>
<circle cx="431.80832" cy="69.22653" fill="#ff0000" r="2.5"/>
<circle cx="430.09955" cy="60.23346" fill="#ff0000" r="2.5"/>
<circle cx="421.0528" cy="63.732544" fill="#ff0000" r="2.5"/>
<circle cx="405.02875" cy="79.41138" fill="#ff0000" r="2.5"/>
<circle cx="382.66635" cy="105.86937" fill="#ff0000" r="2.5"/>
<circle cx="354.85706" cy="140.74309" fill="#ff0000" r="2.5"/>
<circle cx="322.7095" cy="180.91724" fill="#ff0000" r="2.5"/>
<circle cx="287.50537" cy="222.80331" fill="#ff0000" r="2.5"/>
<circle cx="250.64787" cy="262.66" fill="#ff0000" r="2.5"/>
<circle cx="213.60683" cy="296.92664" fill="#ff0000" r="2.5"/>
<circle cx="177.85873" cy="322.5424" fill="#ff0000" r="2.5"/>
<circle cx="144.82877" cy="337.21912" fill="#ff0000" r="2.5"/>
<circle cx="115.83369" cy="339.6458" fill="#ff0000" r="2.5"/>
<circle cx="92.02939" cy="329.60565" fill="#ff0000" r="2.5"/>
<circle cx="74.36507" cy="307.99545" fill="#ff0000" r="2.5"/>
<circle cx="63.544823" cy="276.7458" fill="#ff0000" r="2.5"/>
<circle cx="60" cy="238.64804" fill="#ff0000" r="2.5"/>
<circle cx="63.87197" cy="197.10527" fill="#ff0000" r="2.5"/>
<circle cx="75.00639" cy="155.82816" fill="#ff0000" r="2.5"/>
<circle cx="92.95929" cy="118.50415" fill="#ff0000" r="2.5"/>
<circle cx="117.014984" cy="88.46745" fill="#ff0000" r="2.5"/>
<circle cx="146.21442" cy="68.40088" fill="#ff0000" r="2.5"/>
<circle cx="179.39355" cy="60.096924" fill="#ff0000" r="2.5"/>
<circle cx="215.22975" cy="64.297455" fill="#ff0000" r="2.5"/>
<circle cx="252.29407" cy="80.62723" fill="#ff0000" r="2.5"/>
<circle cx="289.10898" cy="107.62747" fill="#ff0000" r="2.5"/>
<circle cx="324.20685" cy="142.88634" fill="#ff0000" r="2.5"/>
<circle cx="356.18845" cy="183.2543" fill="#ff0000" r="2.5"/>
<circle cx="383.77875" cy="225.12567" fill="#ff0000" r="2.5"/>
<circle cx="405.87772" cy="264.75995" fill="#ff0000" r="2.5"/>
<circle cx="421.60443" cy="298.6165" fill="#ff0000" r="2.5"/>
<circle cx="430.33188" cy="323.67126" fill="#ff0000" r="2.5"/>
<circle cx="431.7122" cy="337.68625" fill="#ff0000" r="2.5"/>
<circle cx="425.69022" cy="339.4095" fill="#ff0000" r="2.5"/>
<circle cx="412.5062" cy="328.6869" fill="#ff0000" r="2.5"/>
<circle cx="392.68555" cy="306.4765" fill="#ff0000" r="2.5"/>
<circle cx="367.01868" cy="274.76227" fill="#ff0000" r="2.5"/>
<circle cx="336.5287" cy="236.37706" fill="#ff0000" r="2.5"/>
<circle cx="302.43094" cy="194.74948" fill="#ff0000" r="2.5"/>
<circle cx="266.08524" cy="153.59824" fill="#ff0000" r="2.5"/>
<circle cx="228.94032" cy="116.59949" fill="#ff0000" r="2.5"/>
<circle cx="192.47705" cy="87.05795" fill="#ff0000" r="2.5"/>
<circle cx="158.14897" cy="67.612366" fill="#ff0000" r="2.5"/>
<circle cx="127.32508" cy="60" fill="#ff0000" r="2.5"/>
<circle cx="101.23365" cy="64.90073" fill="#ff0000" r="2.5"/>
<circle cx="80.91518" cy="81.87674" fill="#ff0000" r="2.5"/>
<circle cx="67.17983" cy="109.411606" fill="#ff0000" r="2.5"/>
<circle cx="60.574883" cy="145.046" fill="#ff0000" r="2.5"/>
<circle cx="61.363827" cy="185.59612" fill="#ff0000" r="2.5"/>
<circle cx="69.51522" cy="227.44095" fill="#ff0000" r="2.5"/>
<circle cx="84.70407" cy="266.84137" fill="#ff0000" r="2.5"/>
<circle cx="106.32466" cy="300.27838" fill="#ff0000" r="2.5"/>
<circle cx="133.51543" cy="324.76535" fill="#ff0000" r="2.5"/>
<circle cx="165.19185" cy="338.11453" fill="#ff0000" r="2.5"/>
<circle cx="200.09169" cy="339.13376" fill="#ff0000" r="2.5"/>
<circle cx="236.82332" cy="327.73187" fill="#ff0000" r="2.5"/>
<circle cx="273.922" cy="304.9275" fill="#ff0000" r="2.5"/>
<circle cx="309.90936" cy="272.75735" fill="#ff0000" r="2.5"/>
<circle cx="343.35016" cy="234.09583" fill="#ff0000" r="2.5"/>
<circle cx="372.91168" cy="192.39519" fill="#ff0000" r="2.5"/>
<circle cx="397.4152" cy="151.3817" fill="#ff0000" r="2.5"/>
<circle cx="415.8836" cy="114.71843" fill="#ff0000" r="2.5"/>
</g>
<rect fill="white" height="38" stroke="#000000" stroke-width="1" width="128" x="442" y="70"/>
<rect fill="#ff0000" height="14.400001" width="15" x="452" y="81.8"/>
<text dominant-baseline="middle" fill="#000000" font-family="Times New Roman" font-size="12" text-anchor="start" x="472" y="89">
Lissajous Curve
</text>
</svg>