<svg height="400" viewBox="0 0 600 400" width="600" xmlns="http://www.w3.org/2000/svg">
<rect fill="white" height="400" width="600" x="0" y="0"/>
<text dominant-baseline="middle" fill="#000000" font-family="Times New Roman" font-size="20" text-anchor="middle" x="246" y="30">
Scatter Graph Example
</text>
<text dominant-baseline="middle" fill="#000000" font-family="Times New Roman" font-size="14" text-anchor="middle" x="246" y="376">
X Axis
</text>
<text dominant-baseline="middle" fill="#000000" font-family="Times New Roman" font-size="14" text-anchor="middle" transform="rotate(-90, 18, 200)" x="18" y="200">
Y Axis
</text>
<rect fill="none" height="280" stroke="#000000" stroke-width="1.5" width="372" x="60" y="60"/>
<line stroke="#000000" stroke-width="1" x1="60" x2="60" y1="340" y2="335"/>
<text dominant-baseline="hanging" fill="#000000" font-family="Times New Roman" font-size="10" text-anchor="middle" x="60" y="349">
-10.0
</text>
<line stroke="#000000" stroke-width="1" x1="60" x2="60" y1="60" y2="65"/>
<line stroke="#d3d3d3" stroke-dasharray="4 4" stroke-width="0.5" x1="97.2" x2="97.2" y1="60" y2="340"/>
<line stroke="#000000" stroke-width="1" x1="97.2" x2="97.2" y1="340" y2="335"/>
<text dominant-baseline="hanging" fill="#000000" font-family="Times New Roman" font-size="10" text-anchor="middle" x="97.2" y="349">
-8.0
</text>
<line stroke="#000000" stroke-width="1" x1="97.2" x2="97.2" y1="60" y2="65"/>
<line stroke="#d3d3d3" stroke-dasharray="4 4" stroke-width="0.5" x1="134.4" x2="134.4" y1="60" y2="340"/>
<line stroke="#000000" stroke-width="1" x1="134.4" x2="134.4" y1="340" y2="335"/>
<text dominant-baseline="hanging" fill="#000000" font-family="Times New Roman" font-size="10" text-anchor="middle" x="134.4" y="349">
-6.0
</text>
<line stroke="#000000" stroke-width="1" x1="134.4" x2="134.4" y1="60" y2="65"/>
<line stroke="#d3d3d3" stroke-dasharray="4 4" stroke-width="0.5" x1="171.6" x2="171.6" y1="60" y2="340"/>
<line stroke="#000000" stroke-width="1" x1="171.6" x2="171.6" y1="340" y2="335"/>
<text dominant-baseline="hanging" fill="#000000" font-family="Times New Roman" font-size="10" text-anchor="middle" x="171.6" y="349">
-4.0
</text>
<line stroke="#000000" stroke-width="1" x1="171.6" x2="171.6" y1="60" y2="65"/>
<line stroke="#d3d3d3" stroke-dasharray="4 4" stroke-width="0.5" x1="208.8" x2="208.8" y1="60" y2="340"/>
<line stroke="#000000" stroke-width="1" x1="208.8" x2="208.8" y1="340" y2="335"/>
<text dominant-baseline="hanging" fill="#000000" font-family="Times New Roman" font-size="10" text-anchor="middle" x="208.8" y="349">
-2.0
</text>
<line stroke="#000000" stroke-width="1" x1="208.8" x2="208.8" y1="60" y2="65"/>
<line stroke="#d3d3d3" stroke-dasharray="4 4" stroke-width="0.5" x1="246" x2="246" y1="60" y2="340"/>
<line stroke="#000000" stroke-width="1" x1="246" x2="246" y1="340" y2="335"/>
<text dominant-baseline="hanging" fill="#000000" font-family="Times New Roman" font-size="10" text-anchor="middle" x="246" y="349">
0.0
</text>
<line stroke="#000000" stroke-width="1" x1="246" x2="246" y1="60" y2="65"/>
<line stroke="#d3d3d3" stroke-dasharray="4 4" stroke-width="0.5" x1="283.2" x2="283.2" y1="60" y2="340"/>
<line stroke="#000000" stroke-width="1" x1="283.2" x2="283.2" y1="340" y2="335"/>
<text dominant-baseline="hanging" fill="#000000" font-family="Times New Roman" font-size="10" text-anchor="middle" x="283.2" y="349">
2.0
</text>
<line stroke="#000000" stroke-width="1" x1="283.2" x2="283.2" y1="60" y2="65"/>
<line stroke="#d3d3d3" stroke-dasharray="4 4" stroke-width="0.5" x1="320.4" x2="320.4" y1="60" y2="340"/>
<line stroke="#000000" stroke-width="1" x1="320.4" x2="320.4" y1="340" y2="335"/>
<text dominant-baseline="hanging" fill="#000000" font-family="Times New Roman" font-size="10" text-anchor="middle" x="320.4" y="349">
4.0
</text>
<line stroke="#000000" stroke-width="1" x1="320.4" x2="320.4" y1="60" y2="65"/>
<line stroke="#d3d3d3" stroke-dasharray="4 4" stroke-width="0.5" x1="357.6" x2="357.6" y1="60" y2="340"/>
<line stroke="#000000" stroke-width="1" x1="357.6" x2="357.6" y1="340" y2="335"/>
<text dominant-baseline="hanging" fill="#000000" font-family="Times New Roman" font-size="10" text-anchor="middle" x="357.6" y="349">
6.0
</text>
<line stroke="#000000" stroke-width="1" x1="357.6" x2="357.6" y1="60" y2="65"/>
<line stroke="#d3d3d3" stroke-dasharray="4 4" stroke-width="0.5" x1="394.8" x2="394.8" y1="60" y2="340"/>
<line stroke="#000000" stroke-width="1" x1="394.8" x2="394.8" y1="340" y2="335"/>
<text dominant-baseline="hanging" fill="#000000" font-family="Times New Roman" font-size="10" text-anchor="middle" x="394.8" y="349">
8.0
</text>
<line stroke="#000000" stroke-width="1" x1="394.8" x2="394.8" y1="60" y2="65"/>
<line stroke="#000000" stroke-width="1" x1="432" x2="432" y1="340" y2="335"/>
<text dominant-baseline="hanging" fill="#000000" font-family="Times New Roman" font-size="10" text-anchor="middle" x="432" y="349">
10.0
</text>
<line stroke="#000000" stroke-width="1" x1="432" x2="432" y1="60" y2="65"/>
<line stroke="#000000" stroke-width="1" x1="60" x2="65" y1="340" y2="340"/>
<line stroke="#000000" stroke-width="1" x1="432" x2="427" y1="340" y2="340"/>
<text dominant-baseline="middle" fill="#000000" font-family="Times New Roman" font-size="10" text-anchor="end" x="52" y="340">
-10.0
</text>
<line stroke="#d3d3d3" stroke-dasharray="4 4" stroke-width="0.5" x1="60" x2="432" y1="270" y2="270"/>
<line stroke="#000000" stroke-width="1" x1="60" x2="65" y1="270" y2="270"/>
<line stroke="#000000" stroke-width="1" x1="432" x2="427" y1="270" y2="270"/>
<text dominant-baseline="middle" fill="#000000" font-family="Times New Roman" font-size="10" text-anchor="end" x="52" y="270">
-5.0
</text>
<line stroke="#d3d3d3" stroke-dasharray="4 4" stroke-width="0.5" x1="60" x2="432" y1="200" y2="200"/>
<line stroke="#000000" stroke-width="1" x1="60" x2="65" y1="200" y2="200"/>
<line stroke="#000000" stroke-width="1" x1="432" x2="427" y1="200" y2="200"/>
<text dominant-baseline="middle" fill="#000000" font-family="Times New Roman" font-size="10" text-anchor="end" x="52" y="200">
0.0
</text>
<line stroke="#d3d3d3" stroke-dasharray="4 4" stroke-width="0.5" x1="60" x2="432" y1="130" y2="130"/>
<line stroke="#000000" stroke-width="1" x1="60" x2="65" y1="130" y2="130"/>
<line stroke="#000000" stroke-width="1" x1="432" x2="427" y1="130" y2="130"/>
<text dominant-baseline="middle" fill="#000000" font-family="Times New Roman" font-size="10" text-anchor="end" x="52" y="130">
5.0
</text>
<line stroke="#000000" stroke-width="1" x1="60" x2="65" y1="60" y2="60"/>
<line stroke="#000000" stroke-width="1" x1="432" x2="427" y1="60" y2="60"/>
<text dominant-baseline="middle" fill="#000000" font-family="Times New Roman" font-size="10" text-anchor="end" x="52" y="60">
10.0
</text>
<defs>
<clipPath id="plotAreaClip">
<rect height="280" width="372" x="60" y="60"/>
</clipPath>
</defs>
<g clip-path="url(#plotAreaClip)">
<circle cx="246" cy="77.13843" fill="#ff0000" r="2.5"/>
<circle cx="282.9525" cy="102.46106" fill="#ff0000" r="2.5"/>
<circle cx="318.43182" cy="136.49655" fill="#ff0000" r="2.5"/>
<circle cx="351.02353" cy="176.2046" fill="#ff0000" r="2.5"/>
<circle cx="379.42822" cy="218.03824" fill="#ff0000" r="2.5"/>
<circle cx="402.5136" cy="258.26056" fill="#ff0000" r="2.5"/>
<circle cx="419.35925" cy="293.27866" fill="#ff0000" r="2.5"/>
<circle cx="429.2936" cy="319.96442" fill="#ff0000" r="2.5"/>
<circle cx="431.92065" cy="335.93414" fill="#ff0000" r="2.5"/>
<circle cx="427.13565" cy="339.76126" fill="#ff0000" r="2.5"/>
<circle cx="415.1293" cy="331.10394" fill="#ff0000" r="2.5"/>
<circle cx="396.38034" cy="310.73547" fill="#ff0000" r="2.5"/>
<circle cx="371.63614" cy="280.4753" fill="#ff0000" r="2.5"/>
<circle cx="341.88324" cy="243.0266" fill="#ff0000" r="2.5"/>
<circle cx="308.3078" cy="201.73445" fill="#ff0000" r="2.5"/>
<circle cx="272.2483" cy="160.2873" fill="#ff0000" r="2.5"/>
<circle cx="235.1424" cy="122.38757" fill="#ff0000" r="2.5"/>
<circle cx="198.46933" cy="91.420746" fill="#ff0000" r="2.5"/>
<circle cx="163.69118" cy="70.153015" fill="#ff0000" r="2.5"/>
<circle cx="132.19444" cy="60.48413" fill="#ff0000" r="2.5"/>
<circle cx="105.23473" cy="63.27774" fill="#ff0000" r="2.5"/>
<circle cx="83.88688" cy="78.28436" fill="#ff0000" r="2.5"/>
<circle cx="69.002014" cy="104.1635" fill="#ff0000" r="2.5"/>
<circle cx="61.17348" cy="138.60332" fill="#ff0000" r="2.5"/>
<circle cx="60.713383" cy="178.5277" fill="#ff0000" r="2.5"/>
<circle cx="67.64008" cy="220.37" fill="#ff0000" r="2.5"/>
<circle cx="81.67746" cy="260.3928" fill="#ff0000" r="2.5"/>
<circle cx="102.26581" cy="295.02084" fill="#ff0000" r="2.5"/>
<circle cx="128.5844" cy="321.1609" fill="#ff0000" r="2.5"/>
<circle cx="159.58401" cy="336.47812" fill="#ff0000" r="2.5"/>
<circle cx="194.02872" cy="339.6041" fill="#ff0000" r="2.5"/>
<circle cx="230.54541" cy="330.25967" fill="#ff0000" r="2.5"/>
<circle cx="267.67816" cy="309.2795" fill="#ff0000" r="2.5"/>
<circle cx="303.9467" cy="278.53784" fill="#ff0000" r="2.5"/>
<circle cx="337.90512" cy="240.7804" fill="#ff0000" r="2.5"/>
<circle cx="368.1995" cy="199.38039" fill="#ff0000" r="2.5"/>
<circle cx="393.62225" cy="158.03561" fill="#ff0000" r="2.5"/>
<circle cx="413.1597" cy="120.43941" fill="#ff0000" r="2.5"/>
<circle cx="426.03305" cy="89.95018" fill="#ff0000" r="2.5"/>
<circle cx="431.72906" cy="69.29126" fill="#ff0000" r="2.5"/>
<circle cx="430.02063" cy="60.308258" fill="#ff0000" r="2.5"/>
<circle cx="420.97592" cy="63.803406" fill="#ff0000" r="2.5"/>
<circle cx="404.95535" cy="79.46469" fill="#ff0000" r="2.5"/>
<circle cx="382.59778" cy="105.893036" fill="#ff0000" r="2.5"/>
<circle cx="354.7946" cy="140.72766" fill="#ff0000" r="2.5"/>
<circle cx="322.65405" cy="180.85678" fill="#ff0000" r="2.5"/>
<circle cx="287.45758" cy="222.69592" fill="#ff0000" r="2.5"/>
<circle cx="250.60811" cy="262.50793" fill="#ff0000" r="2.5"/>
<circle cx="213.57513" cy="296.73615" fill="#ff0000" r="2.5"/>
<circle cx="177.83485" cy="322.32324" fill="#ff0000" r="2.5"/>
<circle cx="144.81207" cy="336.9835" fill="#ff0000" r="2.5"/>
<circle cx="115.82333" cy="339.40747" fill="#ff0000" r="2.5"/>
<circle cx="92.024216" cy="329.37857" fill="#ff0000" r="2.5"/>
<circle cx="74.36375" cy="307.79257" fill="#ff0000" r="2.5"/>
<circle cx="63.54586" cy="276.57794" fill="#ff0000" r="2.5"/>
<circle cx="60.00181" cy="238.52287" fill="#ff0000" r="2.5"/>
<circle cx="63.872936" cy="197.02667" fill="#ff0000" r="2.5"/>
<circle cx="75.00494" cy="155.79582" fill="#ff0000" r="2.5"/>
<circle cx="92.95392" cy="118.513626" fill="#ff0000" r="2.5"/>
<circle cx="117.004364" cy="88.51059" fill="#ff0000" r="2.5"/>
<circle cx="146.19743" cy="68.46652" fill="#ff0000" r="2.5"/>
<circle cx="179.36932" cy="60.171875" fill="#ff0000" r="2.5"/>
<circle cx="215.19772" cy="64.367676" fill="#ff0000" r="2.5"/>
<circle cx="252.25397" cy="80.6792" fill="#ff0000" r="2.5"/>
<circle cx="289.06085" cy="107.649155" fill="#ff0000" r="2.5"/>
<circle cx="324.15106" cy="142.86852" fill="#ff0000" r="2.5"/>
<circle cx="356.12567" cy="183.19124" fill="#ff0000" r="2.5"/>
<circle cx="383.71" cy="225.01569" fill="#ff0000" r="2.5"/>
<circle cx="405.80414" cy="264.60553" fill="#ff0000" r="2.5"/>
<circle cx="421.5274" cy="298.42413" fill="#ff0000" r="2.5"/>
<circle cx="430.253" cy="323.45084" fill="#ff0000" r="2.5"/>
<circle cx="431.63293" cy="337.4501" fill="#ff0000" r="2.5"/>
<circle cx="425.6123" cy="339.17142" fill="#ff0000" r="2.5"/>
<circle cx="412.43112" cy="328.46085" fill="#ff0000" r="2.5"/>
<circle cx="392.61484" cy="306.27533" fill="#ff0000" r="2.5"/>
<circle cx="366.95355" cy="274.59662" fill="#ff0000" r="2.5"/>
<circle cx="336.4702" cy="236.25446" fill="#ff0000" r="2.5"/>
<circle cx="302.37988" cy="194.67352" fill="#ff0000" r="2.5"/>
<circle cx="266.0421" cy="153.56839" fill="#ff0000" r="2.5"/>
<circle cx="228.90529" cy="116.611115" fill="#ff0000" r="2.5"/>
<circle cx="192.44998" cy="87.10268" fill="#ff0000" r="2.5"/>
<circle cx="158.1294" cy="67.67886" fill="#ff0000" r="2.5"/>
<circle cx="127.31221" cy="60.075043" fill="#ff0000" r="2.5"/>
<circle cx="101.22647" cy="64.970245" fill="#ff0000" r="2.5"/>
<circle cx="80.91242" cy="81.92728" fill="#ff0000" r="2.5"/>
<circle cx="67.18007" cy="109.431305" fill="#ff0000" r="2.5"/>
<circle cx="60.57657" cy="145.02576" fill="#ff0000" r="2.5"/>
<circle cx="61.365337" cy="185.53041" fill="#ff0000" r="2.5"/>
<circle cx="69.51495" cy="227.32835" fill="#ff0000" r="2.5"/>
<circle cx="84.7005" cy="266.68463" fill="#ff0000" r="2.5"/>
<circle cx="106.316376" cy="300.08417" fill="#ff0000" r="2.5"/>
<circle cx="133.5012" cy="324.54367" fill="#ff0000" r="2.5"/>
<circle cx="165.17073" cy="337.8779" fill="#ff0000" r="2.5"/>
<circle cx="200.06296" cy="338.896" fill="#ff0000" r="2.5"/>
<circle cx="236.78659" cy="327.5069" fill="#ff0000" r="2.5"/>
<circle cx="273.87714" cy="304.72806" fill="#ff0000" r="2.5"/>
<circle cx="309.8567" cy="272.594" fill="#ff0000" r="2.5"/>
<circle cx="343.29016" cy="233.97577" fill="#ff0000" r="2.5"/>
<circle cx="372.84528" cy="192.32187" fill="#ff0000" r="2.5"/>
<circle cx="397.3434" cy="151.35434" fill="#ff0000" r="2.5"/>
<circle cx="415.8078" cy="114.73215" fill="#ff0000" r="2.5"/>
</g>
<rect fill="white" height="38" stroke="#000000" stroke-width="1" width="128" x="442" y="70"/>
<rect fill="#ff0000" height="14.400001" width="15" x="452" y="81.8"/>
<text dominant-baseline="middle" fill="#000000" font-family="Times New Roman" font-size="12" text-anchor="start" x="472" y="89">
Lissajous Curve
</text>
</svg>