<svg height="500" viewBox="0 0 800 500" width="800" xmlns="http://www.w3.org/2000/svg">
<rect fill="white" height="500" width="800" x="0" y="0"/>
<text dominant-baseline="middle" fill="#000000" font-family="Arial" font-size="20" text-anchor="middle" x="338.8" y="30">
Daily Weather Data
</text>
<text dominant-baseline="middle" fill="#000000" font-family="Arial" font-size="14" text-anchor="middle" x="338.8" y="476">
Day of Month
</text>
<text dominant-baseline="middle" fill="#000000" font-family="Arial" font-size="14" text-anchor="middle" transform="rotate(-90, 18, 250)" x="18" y="250">
Temperature (°F) and Humidity (%)
</text>
<rect fill="none" height="380" stroke="#000000" stroke-width="1.5" width="557.6" x="60" y="60"/>
<line stroke="#d3d3d3" stroke-width="0.5" x1="79.227585" x2="79.227585" y1="60" y2="440"/>
<line stroke="#000000" stroke-width="1" x1="79.227585" x2="79.227585" y1="440" y2="435"/>
<text dominant-baseline="hanging" fill="#000000" font-family="Arial" font-size="10" text-anchor="middle" x="79.227585" y="449">
2.0
</text>
<line stroke="#000000" stroke-width="1" x1="79.227585" x2="79.227585" y1="60" y2="65"/>
<line stroke="#d3d3d3" stroke-width="0.5" x1="117.682755" x2="117.682755" y1="60" y2="440"/>
<line stroke="#000000" stroke-width="1" x1="117.682755" x2="117.682755" y1="440" y2="435"/>
<text dominant-baseline="hanging" fill="#000000" font-family="Arial" font-size="10" text-anchor="middle" x="117.682755" y="449">
4.0
</text>
<line stroke="#000000" stroke-width="1" x1="117.682755" x2="117.682755" y1="60" y2="65"/>
<line stroke="#d3d3d3" stroke-width="0.5" x1="156.13794" x2="156.13794" y1="60" y2="440"/>
<line stroke="#000000" stroke-width="1" x1="156.13794" x2="156.13794" y1="440" y2="435"/>
<text dominant-baseline="hanging" fill="#000000" font-family="Arial" font-size="10" text-anchor="middle" x="156.13794" y="449">
6.0
</text>
<line stroke="#000000" stroke-width="1" x1="156.13794" x2="156.13794" y1="60" y2="65"/>
<line stroke="#d3d3d3" stroke-width="0.5" x1="194.5931" x2="194.5931" y1="60" y2="440"/>
<line stroke="#000000" stroke-width="1" x1="194.5931" x2="194.5931" y1="440" y2="435"/>
<text dominant-baseline="hanging" fill="#000000" font-family="Arial" font-size="10" text-anchor="middle" x="194.5931" y="449">
8.0
</text>
<line stroke="#000000" stroke-width="1" x1="194.5931" x2="194.5931" y1="60" y2="65"/>
<line stroke="#d3d3d3" stroke-width="0.5" x1="233.04826" x2="233.04826" y1="60" y2="440"/>
<line stroke="#000000" stroke-width="1" x1="233.04826" x2="233.04826" y1="440" y2="435"/>
<text dominant-baseline="hanging" fill="#000000" font-family="Arial" font-size="10" text-anchor="middle" x="233.04826" y="449">
10.0
</text>
<line stroke="#000000" stroke-width="1" x1="233.04826" x2="233.04826" y1="60" y2="65"/>
<line stroke="#d3d3d3" stroke-width="0.5" x1="271.50342" x2="271.50342" y1="60" y2="440"/>
<line stroke="#000000" stroke-width="1" x1="271.50342" x2="271.50342" y1="440" y2="435"/>
<text dominant-baseline="hanging" fill="#000000" font-family="Arial" font-size="10" text-anchor="middle" x="271.50342" y="449">
12.0
</text>
<line stroke="#000000" stroke-width="1" x1="271.50342" x2="271.50342" y1="60" y2="65"/>
<line stroke="#d3d3d3" stroke-width="0.5" x1="309.95862" x2="309.95862" y1="60" y2="440"/>
<line stroke="#000000" stroke-width="1" x1="309.95862" x2="309.95862" y1="440" y2="435"/>
<text dominant-baseline="hanging" fill="#000000" font-family="Arial" font-size="10" text-anchor="middle" x="309.95862" y="449">
14.0
</text>
<line stroke="#000000" stroke-width="1" x1="309.95862" x2="309.95862" y1="60" y2="65"/>
<line stroke="#d3d3d3" stroke-width="0.5" x1="348.41376" x2="348.41376" y1="60" y2="440"/>
<line stroke="#000000" stroke-width="1" x1="348.41376" x2="348.41376" y1="440" y2="435"/>
<text dominant-baseline="hanging" fill="#000000" font-family="Arial" font-size="10" text-anchor="middle" x="348.41376" y="449">
16.0
</text>
<line stroke="#000000" stroke-width="1" x1="348.41376" x2="348.41376" y1="60" y2="65"/>
<line stroke="#d3d3d3" stroke-width="0.5" x1="386.86896" x2="386.86896" y1="60" y2="440"/>
<line stroke="#000000" stroke-width="1" x1="386.86896" x2="386.86896" y1="440" y2="435"/>
<text dominant-baseline="hanging" fill="#000000" font-family="Arial" font-size="10" text-anchor="middle" x="386.86896" y="449">
18.0
</text>
<line stroke="#000000" stroke-width="1" x1="386.86896" x2="386.86896" y1="60" y2="65"/>
<line stroke="#d3d3d3" stroke-width="0.5" x1="425.32413" x2="425.32413" y1="60" y2="440"/>
<line stroke="#000000" stroke-width="1" x1="425.32413" x2="425.32413" y1="440" y2="435"/>
<text dominant-baseline="hanging" fill="#000000" font-family="Arial" font-size="10" text-anchor="middle" x="425.32413" y="449">
20.0
</text>
<line stroke="#000000" stroke-width="1" x1="425.32413" x2="425.32413" y1="60" y2="65"/>
<line stroke="#d3d3d3" stroke-width="0.5" x1="463.77927" x2="463.77927" y1="60" y2="440"/>
<line stroke="#000000" stroke-width="1" x1="463.77927" x2="463.77927" y1="440" y2="435"/>
<text dominant-baseline="hanging" fill="#000000" font-family="Arial" font-size="10" text-anchor="middle" x="463.77927" y="449">
22.0
</text>
<line stroke="#000000" stroke-width="1" x1="463.77927" x2="463.77927" y1="60" y2="65"/>
<line stroke="#d3d3d3" stroke-width="0.5" x1="502.23447" x2="502.23447" y1="60" y2="440"/>
<line stroke="#000000" stroke-width="1" x1="502.23447" x2="502.23447" y1="440" y2="435"/>
<text dominant-baseline="hanging" fill="#000000" font-family="Arial" font-size="10" text-anchor="middle" x="502.23447" y="449">
24.0
</text>
<line stroke="#000000" stroke-width="1" x1="502.23447" x2="502.23447" y1="60" y2="65"/>
<line stroke="#d3d3d3" stroke-width="0.5" x1="540.68964" x2="540.68964" y1="60" y2="440"/>
<line stroke="#000000" stroke-width="1" x1="540.68964" x2="540.68964" y1="440" y2="435"/>
<text dominant-baseline="hanging" fill="#000000" font-family="Arial" font-size="10" text-anchor="middle" x="540.68964" y="449">
26.0
</text>
<line stroke="#000000" stroke-width="1" x1="540.68964" x2="540.68964" y1="60" y2="65"/>
<line stroke="#d3d3d3" stroke-width="0.5" x1="579.14484" x2="579.14484" y1="60" y2="440"/>
<line stroke="#000000" stroke-width="1" x1="579.14484" x2="579.14484" y1="440" y2="435"/>
<text dominant-baseline="hanging" fill="#000000" font-family="Arial" font-size="10" text-anchor="middle" x="579.14484" y="449">
28.0
</text>
<line stroke="#000000" stroke-width="1" x1="579.14484" x2="579.14484" y1="60" y2="65"/>
<line stroke="#000000" stroke-width="1" x1="617.6" x2="617.6" y1="440" y2="435"/>
<text dominant-baseline="hanging" fill="#000000" font-family="Arial" font-size="10" text-anchor="middle" x="617.6" y="449">
30.0
</text>
<line stroke="#000000" stroke-width="1" x1="617.6" x2="617.6" y1="60" y2="65"/>
<line stroke="#d3d3d3" stroke-width="0.5" x1="60" x2="617.6" y1="410.76923" y2="410.76923"/>
<line stroke="#000000" stroke-width="1" x1="60" x2="65" y1="410.76923" y2="410.76923"/>
<line stroke="#000000" stroke-width="1" x1="617.6" x2="612.6" y1="410.76923" y2="410.76923"/>
<text dominant-baseline="middle" fill="#000000" font-family="Arial" font-size="10" text-anchor="end" x="52" y="410.76923">
30.0
</text>
<line stroke="#d3d3d3" stroke-width="0.5" x1="60" x2="617.6" y1="352.30768" y2="352.30768"/>
<line stroke="#000000" stroke-width="1" x1="60" x2="65" y1="352.30768" y2="352.30768"/>
<line stroke="#000000" stroke-width="1" x1="617.6" x2="612.6" y1="352.30768" y2="352.30768"/>
<text dominant-baseline="middle" fill="#000000" font-family="Arial" font-size="10" text-anchor="end" x="52" y="352.30768">
40.0
</text>
<line stroke="#d3d3d3" stroke-width="0.5" x1="60" x2="617.6" y1="293.84613" y2="293.84613"/>
<line stroke="#000000" stroke-width="1" x1="60" x2="65" y1="293.84613" y2="293.84613"/>
<line stroke="#000000" stroke-width="1" x1="617.6" x2="612.6" y1="293.84613" y2="293.84613"/>
<text dominant-baseline="middle" fill="#000000" font-family="Arial" font-size="10" text-anchor="end" x="52" y="293.84613">
50.0
</text>
<line stroke="#d3d3d3" stroke-width="0.5" x1="60" x2="617.6" y1="235.3846" y2="235.3846"/>
<line stroke="#000000" stroke-width="1" x1="60" x2="65" y1="235.3846" y2="235.3846"/>
<line stroke="#000000" stroke-width="1" x1="617.6" x2="612.6" y1="235.3846" y2="235.3846"/>
<text dominant-baseline="middle" fill="#000000" font-family="Arial" font-size="10" text-anchor="end" x="52" y="235.3846">
60.0
</text>
<line stroke="#d3d3d3" stroke-width="0.5" x1="60" x2="617.6" y1="176.92307" y2="176.92307"/>
<line stroke="#000000" stroke-width="1" x1="60" x2="65" y1="176.92307" y2="176.92307"/>
<line stroke="#000000" stroke-width="1" x1="617.6" x2="612.6" y1="176.92307" y2="176.92307"/>
<text dominant-baseline="middle" fill="#000000" font-family="Arial" font-size="10" text-anchor="end" x="52" y="176.92307">
70.0
</text>
<line stroke="#d3d3d3" stroke-width="0.5" x1="60" x2="617.6" y1="118.46155" y2="118.46155"/>
<line stroke="#000000" stroke-width="1" x1="60" x2="65" y1="118.46155" y2="118.46155"/>
<line stroke="#000000" stroke-width="1" x1="617.6" x2="612.6" y1="118.46155" y2="118.46155"/>
<text dominant-baseline="middle" fill="#000000" font-family="Arial" font-size="10" text-anchor="end" x="52" y="118.46155">
80.0
</text>
<line stroke="#000000" stroke-width="1" x1="60" x2="65" y1="60" y2="60"/>
<line stroke="#000000" stroke-width="1" x1="617.6" x2="612.6" y1="60" y2="60"/>
<text dominant-baseline="middle" fill="#000000" font-family="Arial" font-size="10" text-anchor="end" x="52" y="60">
90.0
</text>
<defs>
<clipPath id="plotAreaClip">
<rect height="380" width="557.6" x="60" y="60"/>
</clipPath>
</defs>
<g clip-path="url(#plotAreaClip)">
<path d="M60,399.07693 C61.6023,401.02567,76.02299,423.9231,79.227585,422.46155 C82.43218,421,95.25057,388.35898,98.45517,381.53845 C101.65977,374.71793,114.47816,342.07693,117.682755,340.6154 C120.88735,339.15384,133.70573,365.46155,136.91034,364 C140.11494,362.53845,152.93335,329.89743,156.13794,323.0769 C159.34253,316.25638,172.16092,283.6154,175.36551,282.15384 C178.5701,280.6923,191.38849,307,194.5931,305.53845 C197.7977,304.0769,210.61609,270.94873,213.82068,264.6154 C217.02527,258.28204,229.84366,231,233.04826,229.53845 C236.25287,228.0769,249.07127,249.02562,252.27586,247.0769 C255.48045,245.12819,268.29883,212.97435,271.50342,206.15384 C274.708,199.33333,287.52643,166.6923,290.73102,165.23077 C293.9356,163.76924,306.75403,190.0769,309.95862,188.61537 C313.1632,187.15384,325.9816,152.56409,329.1862,147.69229 C332.39078,142.8205,345.20917,133.56409,348.41376,130.15384 C351.61835,126.74358,364.43677,107.25641,367.64136,106.769226 C370.84595,106.28204,383.66437,125.76922,386.86896,124.30768 C390.07355,122.84614,402.89194,93.61539,406.09653,89.230774 C409.30112,84.84616,422.11954,71.20514,425.32413,71.69232 C428.52872,72.179504,441.34714,91.66668,444.55173,95.076935 C447.75632,98.48719,460.57468,109.20513,463.77927,112.61539 C466.98386,116.02564,479.80228,132.10257,483.00687,136 C486.21146,139.89743,499.02988,155.48718,502.23447,159.38461 C505.43906,163.28204,518.25745,179.35898,521.46204,182.76923 C524.6666,186.17947,537.48505,196.89743,540.68964,200.30768 C543.8942,203.71793,556.71265,219.79486,559.91724,223.69229 C563.1218,227.58972,575.94025,243.17947,579.14484,247.0769 C582.3494,250.97433,595.1678,267.0513,598.3724,270.46155 C601.57697,273.8718,615.9977,286.53845,617.6,288" fill="none" stroke="#ff0000" stroke-width="1"/>
<circle cx="60" cy="399.07693" fill="#ff0000" r="2"/>
<circle cx="79.227585" cy="422.46155" fill="#ff0000" r="2"/>
<circle cx="98.45517" cy="381.53845" fill="#ff0000" r="2"/>
<circle cx="117.682755" cy="340.6154" fill="#ff0000" r="2"/>
<circle cx="136.91034" cy="364" fill="#ff0000" r="2"/>
<circle cx="156.13794" cy="323.0769" fill="#ff0000" r="2"/>
<circle cx="175.36551" cy="282.15384" fill="#ff0000" r="2"/>
<circle cx="194.5931" cy="305.53845" fill="#ff0000" r="2"/>
<circle cx="213.82068" cy="264.6154" fill="#ff0000" r="2"/>
<circle cx="233.04826" cy="229.53845" fill="#ff0000" r="2"/>
<circle cx="252.27586" cy="247.0769" fill="#ff0000" r="2"/>
<circle cx="271.50342" cy="206.15384" fill="#ff0000" r="2"/>
<circle cx="290.73102" cy="165.23077" fill="#ff0000" r="2"/>
<circle cx="309.95862" cy="188.61537" fill="#ff0000" r="2"/>
<circle cx="329.1862" cy="147.69229" fill="#ff0000" r="2"/>
<circle cx="348.41376" cy="130.15384" fill="#ff0000" r="2"/>
<circle cx="367.64136" cy="106.769226" fill="#ff0000" r="2"/>
<circle cx="386.86896" cy="124.30768" fill="#ff0000" r="2"/>
<circle cx="406.09653" cy="89.230774" fill="#ff0000" r="2"/>
<circle cx="425.32413" cy="71.69232" fill="#ff0000" r="2"/>
<circle cx="444.55173" cy="95.076935" fill="#ff0000" r="2"/>
<circle cx="463.77927" cy="112.61539" fill="#ff0000" r="2"/>
<circle cx="483.00687" cy="136" fill="#ff0000" r="2"/>
<circle cx="502.23447" cy="159.38461" fill="#ff0000" r="2"/>
<circle cx="521.46204" cy="182.76923" fill="#ff0000" r="2"/>
<circle cx="540.68964" cy="200.30768" fill="#ff0000" r="2"/>
<circle cx="559.91724" cy="223.69229" fill="#ff0000" r="2"/>
<circle cx="579.14484" cy="247.0769" fill="#ff0000" r="2"/>
<circle cx="598.3724" cy="270.46155" fill="#ff0000" r="2"/>
<circle cx="617.6" cy="288" fill="#ff0000" r="2"/>
<path d="M60,89.230774 C61.6023,87.76923,76.02299,70.23078,79.227585,71.69232 C82.43218,73.15386,95.25057,100.4359,98.45517,106.769226 C101.65977,113.102554,114.47816,145.74358,117.682755,147.69229 C120.88735,149.641,133.70573,128.69229,136.91034,130.15384 C140.11494,131.61539,152.93335,160.35898,156.13794,165.23077 C159.34253,170.10257,172.16092,188.12819,175.36551,188.61537 C178.5701,189.10255,191.38849,169.61537,194.5931,171.0769 C197.7977,172.53844,210.61609,201.76923,213.82068,206.15384 C217.02527,210.53845,229.84366,224.17947,233.04826,223.69229 C236.25287,223.20511,249.07127,198.35896,252.27586,200.30768 C255.48045,202.2564,268.29883,241.71793,271.50342,247.0769 C274.708,252.43588,287.52643,265.10257,290.73102,264.6154 C293.9356,264.1282,306.75403,239.76923,309.95862,241.23076 C313.1632,242.69229,325.9816,276.79486,329.1862,282.15384 C332.39078,287.51282,345.20917,302.1282,348.41376,305.53845 C351.61835,308.9487,364.43677,323.5641,367.64136,323.0769 C370.84595,322.58972,383.66437,298.23077,386.86896,299.69232 C390.07355,301.15387,402.89194,335.2564,406.09653,340.6154 C409.30112,345.97437,422.11954,363.51282,425.32413,364 C428.52872,364.48718,441.34714,349.3846,444.55173,346.46155 C447.75632,343.53848,460.57468,331.84613,463.77927,328.92307 C466.98386,326,479.80228,314.79486,483.00687,311.3846 C486.21146,307.97437,499.02988,291.41025,502.23447,288 C505.43906,284.58975,518.25745,273.3846,521.46204,270.46155 C524.6666,267.53848,537.48505,256.33334,540.68964,252.92308 C543.8942,249.51282,556.71265,232.94872,559.91724,229.53845 C563.1218,226.12819,575.94025,215.41025,579.14484,211.99998 C582.3494,208.58972,595.1678,192.5128,598.3724,188.61537 C601.57697,184.71794,615.9977,167.17949,617.6,165.23077" fill="none" stroke="#0000ff" stroke-dasharray="5 5" stroke-width="1"/>
<rect fill="#0000ff" height="4" width="4" x="58" y="87.230774"/>
<rect fill="#0000ff" height="4" width="4" x="77.227585" y="69.69232"/>
<rect fill="#0000ff" height="4" width="4" x="96.45517" y="104.769226"/>
<rect fill="#0000ff" height="4" width="4" x="115.682755" y="145.69229"/>
<rect fill="#0000ff" height="4" width="4" x="134.91034" y="128.15384"/>
<rect fill="#0000ff" height="4" width="4" x="154.13794" y="163.23077"/>
<rect fill="#0000ff" height="4" width="4" x="173.36551" y="186.61537"/>
<rect fill="#0000ff" height="4" width="4" x="192.5931" y="169.0769"/>
<rect fill="#0000ff" height="4" width="4" x="211.82068" y="204.15384"/>
<rect fill="#0000ff" height="4" width="4" x="231.04826" y="221.69229"/>
<rect fill="#0000ff" height="4" width="4" x="250.27586" y="198.30768"/>
<rect fill="#0000ff" height="4" width="4" x="269.50342" y="245.0769"/>
<rect fill="#0000ff" height="4" width="4" x="288.73102" y="262.6154"/>
<rect fill="#0000ff" height="4" width="4" x="307.95862" y="239.23076"/>
<rect fill="#0000ff" height="4" width="4" x="327.1862" y="280.15384"/>
<rect fill="#0000ff" height="4" width="4" x="346.41376" y="303.53845"/>
<rect fill="#0000ff" height="4" width="4" x="365.64136" y="321.0769"/>
<rect fill="#0000ff" height="4" width="4" x="384.86896" y="297.69232"/>
<rect fill="#0000ff" height="4" width="4" x="404.09653" y="338.6154"/>
<rect fill="#0000ff" height="4" width="4" x="423.32413" y="362"/>
<rect fill="#0000ff" height="4" width="4" x="442.55173" y="344.46155"/>
<rect fill="#0000ff" height="4" width="4" x="461.77927" y="326.92307"/>
<rect fill="#0000ff" height="4" width="4" x="481.00687" y="309.3846"/>
<rect fill="#0000ff" height="4" width="4" x="500.23447" y="286"/>
<rect fill="#0000ff" height="4" width="4" x="519.46204" y="268.46155"/>
<rect fill="#0000ff" height="4" width="4" x="538.68964" y="250.92308"/>
<rect fill="#0000ff" height="4" width="4" x="557.91724" y="227.53845"/>
<rect fill="#0000ff" height="4" width="4" x="577.14484" y="209.99998"/>
<rect fill="#0000ff" height="4" width="4" x="596.3724" y="186.61537"/>
<rect fill="#0000ff" height="4" width="4" x="615.6" y="163.23077"/>
</g>
<rect fill="white" height="56" stroke="#000000" stroke-width="1" width="142.4" x="627.6" y="70"/>
<rect fill="#ff0000" height="14.400001" width="15" x="637.6" y="81.8"/>
<text dominant-baseline="middle" fill="#000000" font-family="Arial" font-size="12" text-anchor="start" x="657.6" y="89">
Temperature (°F)
</text>
<rect fill="#0000ff" height="14.400001" width="15" x="637.6" y="99.8"/>
<text dominant-baseline="middle" fill="#000000" font-family="Arial" font-size="12" text-anchor="start" x="657.6" y="107">
Humidity (%)
</text>
</svg>